<svg xmlns="http://www.w3.org/2000/svg" width="112" height="106" viewBox="0 0 112 106" fill="none"><path d="M103.321 37.2061C100.054 37.0827 97.4451 34.4226 97.4451 31.1566V30.4502H61.6937V31.1566C61.6937 32.8309 61.0104 34.3399 59.9041 35.4381C58.795 36.5349 57.271 37.2115 55.5786 37.2115C53.8875 37.2115 52.3649 36.5349 51.2558 35.4381C50.1494 34.3399 49.4662 32.8309 49.4662 31.1566V30.4502H13.7133V31.1566C13.7133 34.4213 11.1022 37.0827 7.83784 37.2061L7.0957 37.2345L7.15458 37.968C9.42208 66.3553 25.7314 90.8299 49.206 104.576L49.8455 104.95L50.1974 104.304C51.2311 102.408 53.2508 101.12 55.5786 101.12C57.909 101.12 59.9287 102.407 60.9625 104.304L61.3144 104.95L61.9538 104.576C85.4299 90.8258 101.738 66.3553 104.005 37.968L104.064 37.2345L103.322 37.2061" fill="white"></path><path d="M103.531 37.9525L102.815 37.896C100.575 66.2303 84.4557 90.6577 61.2505 104.385L61.6152 105.003L62.2468 104.663C60.9697 102.291 58.4596 100.679 55.5723 100.679C52.6892 100.679 50.1804 102.292 48.902 104.663L49.5336 105.003L49.8983 104.385C26.6944 90.6618 10.5738 66.2303 8.33474 37.896L7.61912 37.9525L7.64664 38.6695C11.6968 38.5139 14.9308 35.1836 14.9308 31.0963H14.2138V31.8133H48.7121V31.0963H47.9951C47.9951 35.2827 51.3846 38.6763 55.5723 38.6777C59.7628 38.6777 63.1538 35.2827 63.1538 31.0963H62.4368V31.8133H96.935V31.0963H96.218C96.218 35.1836 99.4493 38.5153 103.502 38.6695L103.53 37.9525L103.557 37.2355C100.274 37.1102 97.652 34.4102 97.652 31.0949V30.3779H61.7198V31.0949C61.7198 32.7945 61.033 34.3262 59.9211 35.4409C58.8064 36.5543 57.2747 37.241 55.5737 37.241C53.8741 37.241 52.3438 36.5543 51.2291 35.4409C50.1171 34.3262 49.4304 32.7945 49.4304 31.0949V30.3779H13.4968V31.0949C13.4968 34.4088 10.8724 37.1102 7.5916 37.2355L6.8457 37.2644L6.90488 38.0089C9.18384 66.8235 25.5756 91.6664 49.1689 105.62L49.8116 105.999L50.1653 105.343C51.2043 103.419 53.2342 102.112 55.5737 102.112C57.916 102.112 59.9459 103.418 60.9849 105.343L61.3386 105.999L61.9812 105.62C85.576 91.6623 101.966 66.8235 104.245 38.0089L104.304 37.2644L103.559 37.2355L103.531 37.9525Z" fill="black"></path><path d="M111.07 19.1029C110.633 16.8886 109.252 14.9881 107.084 14.1872C104.436 13.2087 101.187 14.1555 100.205 16.9753C99.3707 19.3671 100.84 22.403 103.664 22.1264C104.915 22.0039 105.993 21.0337 106.005 19.7291C106.011 19.1277 105.782 18.5153 105.277 18.1588C105.152 18.0708 103.926 17.6386 103.898 17.9263C103.956 17.7611 104.771 18.0584 104.871 18.1175C105.299 18.3708 105.564 18.84 105.605 19.33C105.693 20.3772 104.851 21.2511 103.839 21.3296C101.273 21.5277 100.507 18.4602 101.823 16.7042C103.247 14.8037 106.126 15.0321 107.807 16.4524C109.71 18.0597 109.87 20.7598 108.652 22.8255C105.759 27.7316 99.2675 26.5467 95.1761 23.9773C90.4613 21.0158 87.3318 16.1179 82.5124 13.2858C77.5224 10.3531 71.7328 10.8375 66.7565 13.5059C69.1675 10.393 69.5818 5.29837 66.4014 2.51847C63.9518 0.378498 59.7352 0.162437 57.6695 2.96022C56.6429 4.35155 56.3415 6.36491 57.1342 7.94064C58.0301 9.72005 60.5127 10.6737 62.2563 9.51225C63.5266 8.66589 64.0495 6.5507 62.7215 5.49241C61.7169 4.69147 59.592 5.20203 60.093 6.77777C59.9553 5.08918 62.3995 5.16763 62.6623 6.68006C62.9981 8.61222 60.6242 9.29619 59.2851 8.34662C57.7934 7.28696 58.0025 5.04377 59.1035 3.78318C60.0063 2.74967 61.3659 2.44278 62.683 2.59691C67.117 3.11849 68.2015 8.37001 66.5734 11.8586C66.1496 12.7656 65.5771 13.5748 64.9179 14.3262C64.1486 15.2042 63.0765 15.7629 62.1242 16.4317C60.3847 17.6524 58.6824 18.924 56.9332 20.1295C53.4708 22.5172 49.9876 24.2196 45.7861 24.7053C48.6734 24.6186 51.2716 24.0131 53.8891 22.7553C56.9236 21.2979 59.6842 19.3602 62.5013 17.5327C67.7459 14.1307 74.9778 10.2361 80.6917 14.9441C85.0625 18.5455 85.4423 26.2205 79.8 28.838C77.1508 30.067 73.8768 29.6183 72.0713 27.1935C70.4474 25.0122 70.4543 21.7521 72.747 20.0387C75.2585 18.1616 79.4435 19.4029 79.2894 22.97C79.1435 26.332 73.8067 27.0504 73.6195 23.4159C73.5548 25.5545 75.7485 26.727 77.6338 26.0279C79.855 25.2049 80.477 22.5736 79.4724 20.5809C77.2306 16.1345 70.8355 18.1864 69.7648 22.4085C68.7299 26.4848 71.8828 30.517 75.926 31.0331C80.5871 31.6276 84.9607 28.0536 85.6446 23.4819C86.3258 18.9199 83.667 14.3055 79.5743 12.3169C86.4318 15.0046 89.6741 22.5929 96.1105 25.9646C99.0693 27.5141 103.052 28.4279 106.232 27.0352C109.206 25.7334 111.627 22.4635 111.077 19.1043C111.277 20.3277 111.044 18.9391 111.077 19.1043L111.07 19.1029Z" fill="black"></path><path d="M64.2669 24.5829C60.6352 24.4205 57.075 22.1236 54.1836 20.1295C52.4345 18.9226 50.7308 17.651 48.9926 16.4317C48.1614 15.8482 47.1843 15.3473 46.4701 14.6289C45.7737 13.9298 45.1751 13.0903 44.721 12.2165C43.0007 8.91911 43.6145 3.86988 47.6963 2.73866C48.7945 2.43452 50.1294 2.46893 51.1395 3.06069C52.6368 3.93594 53.4763 6.12132 52.4799 7.66541C51.4987 9.18609 48.5894 9.27417 48.4367 7.09016C48.3087 5.25846 51.1712 4.90753 51.0239 6.77777C51.5235 5.20066 49.4 4.69009 48.3954 5.49241C47.0674 6.55069 47.5903 8.66589 48.8605 9.51225C50.6042 10.6737 53.0882 9.72005 53.9827 7.94064C54.7754 6.36629 54.474 4.35293 53.4474 2.96022C51.3831 0.162437 47.1651 0.378498 44.7155 2.51847C41.5351 5.29699 41.9479 10.3916 44.3604 13.5059C40.0337 11.1857 35.0216 10.4192 30.399 12.3775C25.2204 14.5697 21.9272 19.4208 17.6087 22.798C13.8297 25.7526 7.46897 28.1307 3.52757 24.1851C1.87615 22.5323 1.05456 19.9919 2.2023 17.8203C3.25371 15.8317 5.96067 14.6702 8.06624 15.6844C10.1828 16.7028 10.8874 20.3841 8.2245 21.2153C7.10566 21.5649 5.83268 21.1025 5.56295 19.8667C5.43497 19.2845 5.57396 18.6639 6.03911 18.2675C6.18499 18.1423 7.13043 17.6827 7.21713 17.9276C7.19924 17.7377 6.16435 17.9841 6.13407 17.9964C5.69919 18.1822 5.3813 18.551 5.22303 18.9914C4.79642 20.1763 5.5368 21.4906 6.65564 21.942C8.76671 22.7938 10.8943 21.0612 11.1324 18.9694C11.4035 16.5872 9.73555 14.4335 7.42906 13.9381C5.04138 13.4247 2.54222 14.4445 1.13438 16.4193C-1.50514 20.1185 0.799969 25.0466 4.57485 26.8894C9.18507 29.1408 14.9073 26.6251 18.5046 23.5755C22.8492 19.8928 26.0571 14.4706 31.5481 12.3183C27.7251 14.1761 25.2245 18.229 25.3842 22.4966C25.5521 26.9637 29.1357 30.6986 33.5849 31.0647C37.7781 31.4087 41.6466 28.0949 41.5392 23.7957C41.4333 19.5378 36.1019 16.0271 32.5858 19.3217C30.7898 21.0034 30.5696 24.203 32.7633 25.6604C34.672 26.9279 37.5772 25.9453 37.5015 23.4186C37.3405 26.5123 33.1032 26.6004 32.0477 23.9939C30.8366 21.0048 34.1312 18.4561 36.8767 19.2859C39.5314 20.0896 40.7603 22.8695 39.947 25.443C39.0332 28.3302 36.1267 29.9225 33.1982 29.4105C26.8471 28.3027 25.4764 20.7254 29.1838 16.1964C33.8505 10.4962 41.3328 13.0642 46.616 16.2721C49.817 18.2153 52.8226 20.5011 56.1571 22.2213C59.1186 23.7503 62.0086 24.609 65.3349 24.7095C64.9798 24.6682 64.6248 24.6269 64.2697 24.587C64.9647 24.6668 63.5651 24.5553 64.2697 24.587L64.2669 24.5829Z" fill="black"></path><path d="M67.5458 84.1343C67.5348 86.2605 66.76 88.1032 65.5765 89.7147C63.7695 92.1781 61.0006 94.1006 58.5373 95.675C57.8093 96.1374 57.0813 96.5998 56.3422 97.0415C56.0876 97.1957 55.8331 97.347 55.5785 97.4943C55.3197 97.347 55.0651 97.197 54.8105 97.0415C55.0693 96.8874 55.3239 96.7264 55.5785 96.5612C57.5615 95.2883 59.4731 93.8832 61.4025 92.5524C63.0525 91.4115 64.5828 89.9418 65.4402 88.1018C67.0682 84.6132 65.9852 79.363 61.5497 78.8387C60.2341 78.6846 58.8744 78.9928 57.9703 80.0263C56.8693 81.2883 56.6615 83.5301 58.1533 84.5912C59.491 85.5421 61.8649 84.8568 61.5277 82.9232C61.2662 81.4094 58.8235 81.331 58.9597 83.0196C58.4574 81.4452 60.585 80.9319 61.5883 81.7356C62.9149 82.7939 62.3947 84.9091 61.1217 85.7554C59.3781 86.9169 56.8968 85.9632 56.0009 84.1811C55.7684 83.7187 55.628 83.2122 55.5743 82.7003C55.5427 82.381 55.5427 82.0548 55.5743 81.7314C55.6638 80.8204 56.0009 79.9273 56.5349 79.2034C58.6006 76.4056 62.8172 76.6217 65.2668 78.7616C66.4035 79.7511 67.1274 81.1177 67.404 82.5957C67.5004 83.1007 67.5472 83.6182 67.5444 84.1343H67.5458Z" fill="black"></path><path d="M56.3437 97.0401C56.0891 97.1942 55.8345 97.3456 55.5799 97.4929C55.3212 97.3456 55.0666 97.1956 54.812 97.0401C54.073 96.5997 53.3422 96.1359 52.6142 95.6735C50.1508 94.0992 47.3861 92.1767 45.575 89.7133C44.3956 88.1031 43.6208 86.2604 43.6057 84.1328C43.6016 83.6168 43.6525 83.1007 43.7461 82.5943C44.0227 81.1162 44.7507 79.7497 45.8833 78.7602C48.3329 76.6189 52.5537 76.4042 54.6152 79.202C55.1533 79.9258 55.4905 80.819 55.5758 81.73C55.6116 82.0534 55.6116 82.3754 55.5758 82.6989C55.5249 83.2122 55.3886 83.7131 55.1519 84.1796C54.256 85.9618 51.7734 86.9155 50.027 85.754C48.7581 84.9076 48.2338 82.7924 49.5605 81.7341C50.5678 80.9304 52.6913 81.4438 52.1931 83.0181C52.3293 81.3295 49.8839 81.408 49.6224 82.9218C49.2852 84.854 51.6591 85.5393 53.0009 84.5897C54.4927 83.5287 54.2808 81.2869 53.1798 80.0249C52.2798 78.9928 50.9174 78.6831 49.6004 78.8373C45.1677 79.3602 44.0846 84.6117 45.7126 88.1004C46.57 89.9403 48.0976 91.4101 49.7476 92.551C51.6812 93.8817 53.5954 95.2868 55.5785 96.5598C55.8331 96.7249 56.0836 96.886 56.3423 97.0401H56.3437Z" fill="black"></path><path d="M39.3849 53.7662C38.9721 55.4576 38.5454 57.3416 38.1064 59.4182C38.0651 59.6522 37.9716 60.0816 37.8284 60.7077C37.6839 61.3339 37.5738 61.8362 37.4982 62.2133C37.4225 62.5917 37.3509 63.0486 37.2821 63.5853C37.2133 64.122 37.1995 64.6202 37.2408 65.0812C37.2821 65.5423 37.3715 65.9716 37.5092 66.3707C37.8394 67.3327 38.4642 68.0731 39.3863 68.5891C40.307 69.1052 41.2359 69.1837 42.1717 68.8258C42.3506 68.757 42.5089 68.7804 42.6465 68.8974C42.7841 69.0144 42.8488 69.1616 42.8419 69.3405C42.835 69.5194 42.7428 69.6433 42.5639 69.7121C41.6831 70.0562 40.8547 70.1208 40.0785 69.9075C39.301 69.6942 38.6239 69.3158 38.0459 68.7735C37.4679 68.23 37.0247 67.5597 36.7151 66.7629C36.4055 65.9647 36.272 65.1542 36.3133 64.3285C36.3408 63.7642 36.4096 63.1284 36.5197 62.4197C36.6298 61.7123 36.722 61.1756 36.7991 60.8109C36.8747 60.4462 37.022 59.7788 37.2422 58.81C37.4624 57.8411 37.5931 57.2865 37.6344 57.1489C37.6894 56.9012 37.8615 56.1732 38.1505 54.9621C37.6 55.4851 36.0944 56.8255 33.6324 58.9847C33.3297 59.26 32.4531 60.01 31.0026 61.2334C29.5521 62.4568 28.4552 63.4202 27.7121 64.122C27.2992 65.6757 26.9001 66.9749 26.5162 68.0208C26.5024 68.0621 26.4543 68.1997 26.3717 68.4336C26.2891 68.6676 26.2341 68.8217 26.2065 68.8974C26.179 68.9731 26.124 69.1107 26.0414 69.3103C25.9588 69.5098 25.89 69.6639 25.835 69.774C25.7799 69.8841 25.7084 70.0149 25.6189 70.1662C25.5295 70.3176 25.44 70.4511 25.3506 70.5681C25.2611 70.6851 25.162 70.791 25.0519 70.8874C24.3638 71.5328 23.8216 71.486 23.4225 70.7429C23.106 70.1511 23.0028 69.4699 23.1129 68.7006C23.1404 68.5492 23.1748 68.4185 23.2161 68.3084C23.739 66.8648 24.9694 65.2753 26.9084 63.544C27.1286 62.7459 27.4176 61.605 27.7754 60.1201C28.1332 58.6352 28.3603 57.7131 28.4552 57.3553C28.5791 56.8338 28.8846 55.7741 29.3732 54.1791C29.8617 52.5841 30.2112 51.2327 30.4246 50.1248C30.6379 49.0184 30.7163 47.9216 30.6613 46.8344C30.6062 45.432 30.2966 44.5375 29.7323 44.1522C29.5534 44.0283 29.358 43.9458 29.1447 43.9045C28.9314 43.8632 28.7181 43.8604 28.5048 43.8948C28.2915 43.9293 28.074 43.9871 27.8552 44.071C27.635 44.1536 27.4355 44.2458 27.2566 44.349C27.0777 44.4522 26.9056 44.565 26.7405 44.6889C25.7772 45.377 25.0313 46.277 24.5028 47.3917C23.973 48.5051 23.7982 49.6129 23.9771 50.7125C24.0046 50.9051 23.9455 51.0538 23.801 51.1556C23.6565 51.2588 23.4982 51.2822 23.3262 51.2272C23.1542 51.1721 23.0551 51.0483 23.0276 50.8556C22.9175 50.2239 22.9422 49.5179 23.0991 48.7418C23.256 47.9656 23.5285 47.2156 23.9138 46.4931C24.2978 45.7706 24.756 45.1183 25.2859 44.5334C25.8143 43.9499 26.4336 43.5095 27.1424 43.2136C27.8511 42.9178 28.5695 42.8393 29.2975 42.9769C29.903 43.087 30.3943 43.3457 30.7727 43.7503C31.1512 44.1563 31.3989 44.6655 31.5159 45.2765C31.6328 45.8889 31.6975 46.5206 31.7113 47.1743C31.7251 47.828 31.67 48.5257 31.5462 49.2675C31.4223 50.0106 31.2984 50.6395 31.1746 51.1556C31.0507 51.6717 30.92 52.1699 30.7824 52.6515C30.3557 54.0676 29.475 57.3416 28.1415 62.4706C29.0208 61.7275 29.5369 61.2885 29.6883 61.1508C29.9635 60.9031 30.5512 60.3871 31.4526 59.604C32.3526 58.8196 33.0063 58.2498 33.4123 57.892C33.8182 57.5342 34.3715 57.0361 35.0733 56.3961C35.7752 55.7576 36.4068 55.1686 36.9711 54.6319C37.5353 54.0951 38.0913 53.5529 38.6418 53.0024C38.9308 51.8341 39.1854 50.8776 39.4042 50.1345C40.0647 47.7826 40.6482 46.0087 41.1574 44.8128C41.2813 44.5375 41.3639 44.349 41.4052 44.2458C41.4464 44.1426 41.5318 43.9678 41.6639 43.7201C41.7946 43.4724 41.9116 43.2866 42.0148 43.1627C42.118 43.0389 42.2515 42.9054 42.4166 42.7609C42.5818 42.6164 42.7607 42.5104 42.9534 42.4416C43.2699 42.3315 43.5616 42.3246 43.83 42.4209C44.0984 42.5173 44.3254 42.6755 44.5098 42.8957C44.6956 43.1159 44.836 43.3774 44.9323 43.6802C45.3314 44.9463 44.9598 46.5068 43.819 48.3619C42.7745 50.067 41.2951 51.8685 39.3835 53.7662H39.3849ZM24.6982 69.774C24.9047 69.4575 25.1648 68.8933 25.4813 68.0827C25.7703 67.3134 26.0524 66.4671 26.3277 65.545C25.7909 66.1368 25.3382 66.679 24.9666 67.1744C23.867 68.6593 23.6056 69.6777 24.1822 70.2268C24.251 70.2956 24.3129 70.2997 24.368 70.2364C24.423 70.1745 24.5331 70.0204 24.6982 69.7727V69.774ZM41.6542 46.2371C41.0487 47.8596 40.479 49.6473 39.9423 51.6001C40.3689 51.146 40.6028 50.8914 40.6441 50.8363C40.6716 50.8088 40.8189 50.6478 41.0873 50.3519C41.3556 50.056 41.5345 49.8537 41.624 49.7436C41.7134 49.6335 41.8923 49.4216 42.1607 49.1037C42.429 48.7872 42.6217 48.5436 42.7387 48.3716C42.8557 48.1996 43.0208 47.956 43.2341 47.6394C43.4474 47.3229 43.5988 47.0587 43.6882 46.8454C43.7777 46.6321 43.8809 46.3789 43.9979 46.083C44.1149 45.7871 44.1837 45.5229 44.2043 45.2889C44.225 45.055 44.2208 44.8114 44.1947 44.5568C44.1672 44.3022 44.0983 44.0655 43.9883 43.8453C43.5066 42.8682 42.8598 43.3292 42.0492 45.227C41.9254 45.5022 41.7946 45.8256 41.657 46.1958V46.2371H41.6542Z" fill="black"></path><path d="M39.3849 53.7669L39.2018 53.7228C38.789 55.4169 38.3623 57.3023 37.922 59.3803V59.3831V59.3858C37.8821 59.6115 37.7899 60.0409 37.6454 60.6657C37.5009 61.2919 37.3894 61.7955 37.3137 62.1767C37.2366 62.5607 37.1637 63.0217 37.0949 63.5612C37.0508 63.9039 37.0288 64.2328 37.0288 64.5465C37.0288 64.7351 37.0371 64.9181 37.0522 65.097C37.0949 65.5718 37.1871 66.0163 37.3302 66.4305C37.6729 67.4338 38.3362 68.2168 39.2927 68.7508C39.8596 69.0687 40.439 69.2311 41.0239 69.2311C41.4285 69.2311 41.8345 69.1526 42.2363 68.9999C42.2845 68.9806 42.3244 68.9737 42.3588 68.9737C42.4166 68.9737 42.462 68.9902 42.5212 69.0398C42.568 69.0797 42.5996 69.121 42.6203 69.1636C42.6409 69.2077 42.6519 69.2545 42.6519 69.3136V69.3329C42.6492 69.3921 42.6354 69.4251 42.6148 69.454C42.5927 69.4829 42.5583 69.5104 42.4937 69.5366C41.968 69.7416 41.4684 69.8421 40.9909 69.8421C40.695 69.8421 40.4074 69.8036 40.1252 69.7265C39.3752 69.5201 38.7284 69.1581 38.1724 68.6366C37.6165 68.1136 37.1898 67.4682 36.8885 66.6948C36.6228 66.0108 36.4921 65.3213 36.4921 64.6208C36.4921 64.5273 36.4949 64.4323 36.499 64.3387C36.5251 63.7828 36.5939 63.1525 36.7027 62.4492C36.8128 61.7432 36.905 61.2079 36.9793 60.8501C37.0536 60.4882 37.2022 59.8207 37.4224 58.8519C37.5325 58.3675 37.6206 57.9876 37.6853 57.711C37.7183 57.5734 37.7444 57.4619 37.7665 57.3766C37.7871 57.2913 37.8036 57.2321 37.8119 57.2032V57.1963L37.8146 57.1894C37.8683 56.9459 38.0417 56.2151 38.3293 55.0054L38.4766 54.3903L38.0183 54.8252C37.4733 55.3426 35.9664 56.6844 33.5058 58.8422H33.5044V58.845C33.3572 58.9799 33.0627 59.2358 32.625 59.6102C32.1874 59.9845 31.6053 60.4772 30.88 61.0896C29.4281 62.3144 28.3286 63.2791 27.5813 63.9851L27.5428 64.0222L27.529 64.0745C27.1175 65.6241 26.7198 66.9191 26.3372 67.9567V67.9595L26.3359 67.9622C26.3221 68.0008 26.2739 68.1398 26.1927 68.3723C26.1102 68.6063 26.0551 68.7604 26.029 68.8347C26.0042 68.9035 25.9491 69.0412 25.8666 69.2393C25.7854 69.4361 25.7179 69.5875 25.6657 69.6921C25.6134 69.7953 25.5432 69.9233 25.4551 70.0719C25.3684 70.2178 25.2831 70.3458 25.1991 70.4559C25.1166 70.5619 25.0257 70.6596 24.9253 70.7476L24.9225 70.7504L24.9198 70.7531C24.7684 70.8949 24.6294 70.9967 24.5055 71.0614C24.3817 71.1261 24.2743 71.1536 24.1821 71.1536C24.0762 71.1536 23.9853 71.122 23.8849 71.0449C23.7858 70.9678 23.6826 70.8398 23.5835 70.6568C23.3647 70.2467 23.2532 69.7912 23.2532 69.282C23.2532 69.1045 23.267 68.9201 23.2945 68.7301L23.1087 68.704L23.2931 68.737C23.3193 68.5939 23.3509 68.4742 23.3867 68.3778V68.3751C23.8917 66.9783 25.1014 65.4067 27.0281 63.6864L27.0694 63.6493L27.0845 63.5956C27.3061 62.7947 27.5937 61.6524 27.9529 60.1648C28.3107 58.6799 28.5378 57.7578 28.6327 57.4055V57.4028V57.4C28.7538 56.8881 29.0593 55.8284 29.5479 54.2348C30.0378 52.6343 30.3901 51.2787 30.6048 50.1613C30.7768 49.2695 30.8621 48.3832 30.8621 47.5038C30.8621 47.2781 30.8566 47.0511 30.8456 46.8268L30.6585 46.8364L30.8456 46.8295C30.8181 46.1166 30.7259 45.5249 30.5621 45.0529C30.3997 44.5822 30.1617 44.223 29.8355 44.0001C29.6359 43.8625 29.4144 43.7689 29.1763 43.7235C29.0483 43.6987 28.9203 43.6863 28.7923 43.6863C28.685 43.6863 28.579 43.6946 28.4717 43.7124C28.2446 43.7496 28.0162 43.8102 27.785 43.8982C27.5565 43.9836 27.3473 44.0813 27.1588 44.19C26.973 44.2973 26.7955 44.4143 26.6249 44.5423L26.7377 44.6923L26.629 44.5395C25.6395 45.2455 24.8716 46.1744 24.3307 47.3139C23.9248 48.1685 23.7183 49.0259 23.7197 49.8805C23.7197 50.1695 23.7431 50.4571 23.7899 50.7448L23.9757 50.7145L23.7899 50.7406C23.7927 50.7627 23.794 50.7847 23.794 50.8026C23.794 50.8521 23.7844 50.8879 23.7693 50.9182C23.7541 50.9484 23.7307 50.976 23.6908 51.0049C23.6234 51.053 23.5656 51.0695 23.4995 51.0709C23.4638 51.0709 23.4252 51.0654 23.3826 51.0517C23.3261 51.0324 23.2931 51.009 23.2683 50.9787C23.2436 50.9471 23.2229 50.903 23.2119 50.8328V50.8301V50.8273C23.1692 50.5796 23.1472 50.3181 23.1472 50.0457C23.1472 49.6521 23.1926 49.231 23.2835 48.7837C23.4376 48.0254 23.7032 47.2933 24.0803 46.5859C24.4574 45.8772 24.906 45.2373 25.4262 44.6634C25.9381 44.0992 26.5326 43.6767 27.2152 43.3904C27.6776 43.1978 28.14 43.1028 28.6079 43.1028C28.8254 43.1028 29.0442 43.1234 29.2644 43.1647C29.8369 43.2693 30.2855 43.5074 30.6351 43.8817C30.9874 44.2602 31.2186 44.7322 31.3314 45.3157C31.4456 45.9171 31.5103 46.5391 31.5241 47.1818C31.5241 47.2451 31.5255 47.3098 31.5255 47.3745C31.5255 47.9594 31.4718 48.5814 31.3603 49.2406C31.2378 49.981 31.114 50.6058 30.9915 51.115C30.869 51.6283 30.7383 52.1237 30.602 52.6026L30.7823 52.6535L30.602 52.5999C30.174 54.0228 29.2933 57.2954 27.9598 62.4258L27.8111 62.9983L28.2625 62.6171C28.7029 62.2456 29.0511 61.9497 29.3098 61.7295C29.5685 61.5093 29.735 61.3648 29.8149 61.2932C30.0873 61.0483 30.675 60.5322 31.5764 59.7491C32.4778 58.9647 33.1301 58.395 33.5374 58.0358C33.9448 57.6766 34.498 57.1784 35.1999 56.5385C35.9017 55.8986 36.5361 55.3096 37.1004 54.7729C37.6646 54.2361 38.2234 53.6912 38.7752 53.1393L38.8124 53.1022L38.8247 53.0513C39.1124 51.8842 39.367 50.9305 39.5858 50.1915V50.1888C40.245 47.841 40.8285 46.0726 41.3308 44.8891L41.1574 44.8162L41.328 44.8932C41.4519 44.6166 41.5358 44.4281 41.5785 44.318C41.6143 44.2285 41.6982 44.0551 41.8276 43.8102C41.9542 43.5693 42.067 43.3918 42.1565 43.2858C42.2515 43.173 42.3781 43.045 42.5377 42.9046C42.6863 42.7739 42.8446 42.6817 43.0139 42.6211H43.0125C43.1639 42.5688 43.3042 42.5441 43.4363 42.5441C43.5519 42.5441 43.6593 42.5633 43.7653 42.6005C44.0033 42.6858 44.2001 42.8234 44.3653 43.0189C44.5332 43.2184 44.6625 43.4565 44.752 43.7386C44.8497 44.0469 44.8979 44.3744 44.8979 44.7253C44.8979 45.7244 44.4919 46.9093 43.6565 48.2662C42.6216 49.9548 41.1533 51.7466 39.2486 53.6361L39.2115 53.6733L39.1991 53.7242L39.3821 53.7682L39.5142 53.9017C41.434 51.9957 42.9217 50.1847 43.9772 48.4617C44.8332 47.069 45.2736 45.8263 45.2736 44.7239C45.2736 44.3386 45.2199 43.9712 45.1098 43.6244C45.0066 43.301 44.8538 43.0161 44.6515 42.7753C44.4465 42.5317 44.1891 42.3514 43.8905 42.2454C43.7446 42.1931 43.5919 42.167 43.435 42.167C43.2561 42.167 43.073 42.2014 42.8886 42.2647H42.8872C42.6712 42.3418 42.4716 42.4615 42.29 42.6211C42.1193 42.7698 41.979 42.9101 41.8675 43.045C41.7505 43.1854 41.6294 43.3808 41.4945 43.634C41.3624 43.8845 41.2757 44.0606 41.2276 44.1776C41.189 44.2753 41.1065 44.4638 40.9826 44.7377V44.7405L40.9812 44.7418C40.4665 45.9515 39.8817 47.7309 39.2197 50.0869L39.4 50.1379L39.2197 50.0842C38.9981 50.8315 38.7436 51.7893 38.4546 52.9604L38.6362 53.0058L38.5041 52.8737C37.955 53.4228 37.399 53.965 36.8362 54.5004C36.2733 55.0357 35.6416 55.6233 34.9411 56.2619C34.2407 56.9004 33.6874 57.3986 33.2828 57.7551C32.8782 58.1129 32.2246 58.6826 31.3245 59.467C30.4231 60.2515 29.8355 60.7662 29.5589 61.0166C29.4873 61.0827 29.3194 61.2272 29.0621 61.446C28.8047 61.6662 28.4566 61.9607 28.0162 62.3323L28.1373 62.4754L28.3189 62.5222C29.6525 57.3945 30.5332 54.1205 30.9571 52.71V52.7072C31.0947 52.2228 31.2268 51.7219 31.3507 51.2044C31.4759 50.6828 31.6011 50.0498 31.725 49.3039C31.8378 48.6268 31.8943 47.9841 31.8943 47.3759C31.8943 47.3084 31.8943 47.2424 31.8929 47.1763C31.8791 46.513 31.8131 45.8703 31.6933 45.2469C31.5709 44.6056 31.308 44.0606 30.9034 43.6271C30.4974 43.1909 29.9635 42.9115 29.3249 42.7973C29.0827 42.7519 28.8405 42.7285 28.5997 42.7285C28.0809 42.7285 27.5662 42.8344 27.0625 43.045C26.329 43.3519 25.6849 43.8088 25.1386 44.4116C24.5991 45.0074 24.1312 45.6735 23.7404 46.4098C23.3468 47.1474 23.0688 47.9139 22.9078 48.7094C22.8128 49.1787 22.7646 49.6245 22.7646 50.047C22.7646 50.3402 22.788 50.6237 22.8348 50.8934L23.0192 50.8617L22.8335 50.8879C22.85 51.009 22.894 51.1232 22.9683 51.2168C23.0426 51.3104 23.1459 51.3764 23.2615 51.4122C23.3371 51.437 23.4156 51.4494 23.4927 51.4494C23.6385 51.4494 23.7816 51.3998 23.9014 51.3131C23.9826 51.2553 24.0514 51.181 24.0954 51.0916C24.1408 51.0035 24.1615 50.9044 24.1615 50.8039C24.1615 50.7668 24.1587 50.7282 24.1532 50.6897V50.6856C24.1092 50.4172 24.0885 50.1502 24.0885 49.8805C24.0885 49.0851 24.2785 48.2855 24.6638 47.4749C25.1812 46.3878 25.9051 45.5139 26.8409 44.8451H26.8423L26.8437 44.8423C27.0033 44.7226 27.1684 44.6139 27.3405 44.5148C27.5084 44.4171 27.6997 44.329 27.9102 44.2492C28.1194 44.1707 28.3231 44.1157 28.524 44.0826C28.6107 44.0689 28.6974 44.062 28.7855 44.062C28.8901 44.062 28.9933 44.0716 29.0992 44.0923C29.2878 44.1294 29.457 44.201 29.6153 44.3097C29.8534 44.4721 30.0529 44.7528 30.1988 45.1753C30.3447 45.5964 30.4355 46.1552 30.4617 46.8433V46.846C30.4727 47.0648 30.4782 47.285 30.4782 47.5052C30.4782 48.3612 30.3942 49.2227 30.2277 50.0925C30.0158 51.1906 29.6676 52.5352 29.1804 54.1261C28.6919 55.7238 28.385 56.7821 28.2598 57.3147L28.4428 57.3587L28.2611 57.3105C28.1634 57.6739 27.9377 58.5932 27.5799 60.0794C27.2221 61.5643 26.9345 62.7038 26.7143 63.4979L26.896 63.5474L26.7707 63.4071C24.8193 65.1521 23.5683 66.7567 23.0275 68.2485L23.2037 68.3118L23.0275 68.2457C22.9807 68.3696 22.9449 68.51 22.916 68.671V68.6751V68.6778C22.8871 68.8843 22.872 69.0866 22.872 69.2834C22.872 69.8476 22.9958 70.3692 23.2463 70.8357C23.3619 71.0504 23.4927 71.221 23.6468 71.3421C23.8009 71.4633 23.9839 71.5321 24.1752 71.5307C24.3404 71.5307 24.5069 71.4825 24.672 71.3972C24.8372 71.3119 25.001 71.188 25.1702 71.0298L25.0422 70.8935L25.1661 71.0353C25.2858 70.9307 25.3932 70.8151 25.4895 70.6885C25.5831 70.5646 25.6767 70.4242 25.7702 70.2687C25.8611 70.1132 25.9354 69.9797 25.9932 69.8655C26.051 69.7485 26.1212 69.5916 26.2051 69.3893C26.2877 69.1884 26.3441 69.0508 26.373 68.9696C26.4005 68.8925 26.4556 68.737 26.5382 68.5031C26.6207 68.2691 26.6689 68.1315 26.684 68.0888L26.5065 68.0283L26.6827 68.093C27.0707 67.0402 27.4712 65.7356 27.8841 64.1777L27.7024 64.1296L27.8318 64.2658C28.5694 63.5681 29.6648 62.6075 31.114 61.3854C31.8392 60.773 32.4213 60.2804 32.8604 59.9047C33.2994 59.529 33.5939 59.273 33.7494 59.1326L33.6228 58.9936L33.7466 59.1354C36.2086 56.9761 37.7142 55.6357 38.2701 55.1086L38.1408 54.9724L37.9577 54.9284C37.6687 56.1394 37.4967 56.8674 37.4417 57.1179L37.6247 57.1592L37.4444 57.1055C37.432 57.1468 37.4169 57.2073 37.3949 57.2954C37.3302 57.5583 37.2146 58.0509 37.0495 58.7789C36.8293 59.7492 36.6806 60.4166 36.605 60.784C36.5279 61.1542 36.4343 61.6923 36.3242 62.4024C36.2127 63.1153 36.1439 63.758 36.1164 64.3305C36.1109 64.4309 36.1082 64.5314 36.1082 64.6305C36.1082 65.3791 36.2499 66.1168 36.5306 66.8406C36.8485 67.6608 37.3082 68.3572 37.9068 68.9201C38.5068 69.4843 39.2128 69.8779 40.0179 70.0995C40.3317 70.1848 40.6537 70.2288 40.9826 70.2288C41.5124 70.2288 42.0602 70.1173 42.6216 69.8985H42.6244H42.6203C42.7345 69.8545 42.835 69.7871 42.9065 69.6907C42.9781 69.5958 43.0139 69.4788 43.018 69.3591V69.326C43.018 69.2173 42.996 69.1113 42.9506 69.0164C42.9051 68.9201 42.8377 68.8361 42.7551 68.7659C42.6409 68.6682 42.4978 68.609 42.3492 68.6104C42.2625 68.6104 42.1758 68.6283 42.0918 68.6613C41.7285 68.8003 41.3693 68.8678 41.0129 68.8678C40.4996 68.8678 39.9862 68.726 39.4647 68.4356C38.5784 67.9375 37.9908 67.2411 37.6729 66.3204C37.5408 65.9365 37.4541 65.5223 37.4142 65.075C37.399 64.9085 37.3921 64.7365 37.3921 64.5575C37.3921 64.2603 37.4128 63.9479 37.4554 63.6204C37.5242 63.0878 37.5958 62.6336 37.6701 62.2621C37.7444 61.8877 37.8545 61.3868 37.999 60.762C38.1435 60.1345 38.2371 59.7051 38.2798 59.4629L38.0954 59.4299L38.2784 59.4684C38.7174 57.3945 39.144 55.5105 39.5555 53.8219L39.3725 53.7779L39.3849 53.7669ZM24.6982 69.7747L24.8551 69.8765C25.0753 69.5366 25.3367 68.9682 25.656 68.1508V68.148C25.9464 67.3732 26.2299 66.5227 26.5065 65.5993L26.7432 64.8066L26.1872 65.419C25.6478 66.0136 25.1909 66.5613 24.8152 67.0622C24.4491 67.5563 24.1725 68.0021 23.9839 68.404C23.7968 68.8058 23.6963 69.1664 23.6949 69.4912C23.6949 69.6618 23.7238 69.8228 23.783 69.9715C23.8422 70.1187 23.933 70.2508 24.0514 70.3623L24.1807 70.2261L24.0473 70.3582C24.0748 70.3857 24.1064 70.4118 24.145 70.4325C24.1835 70.4531 24.2317 70.4683 24.2826 70.4683C24.3294 70.4683 24.3762 70.4559 24.4133 70.4352C24.4519 70.4146 24.4808 70.3885 24.5055 70.3609C24.5427 70.3196 24.5853 70.2632 24.6418 70.1834C24.6982 70.1036 24.7684 70.0017 24.8509 69.8765V69.8751L24.6941 69.7733L24.5386 69.6687C24.456 69.7912 24.3885 69.8903 24.3349 69.966C24.2826 70.0403 24.2413 70.0926 24.2234 70.1118L24.2633 70.1531L24.2399 70.1008L24.2234 70.1118L24.2633 70.1531L24.2399 70.1008L24.2812 70.1903V70.0912C24.2661 70.0912 24.2496 70.0953 24.2399 70.0995L24.2812 70.1889V70.0898V70.1696L24.3197 70.0981C24.3197 70.0981 24.3005 70.0898 24.2812 70.0898V70.1696L24.3197 70.0981L24.3087 70.1187L24.3211 70.0995H24.3197L24.3087 70.1187L24.3211 70.0995L24.3115 70.0912H24.3101L24.3087 70.0871C24.2275 70.0086 24.1697 69.9247 24.1298 69.827C24.0899 69.7293 24.0693 69.6178 24.0693 69.4884C24.0693 69.2421 24.1491 68.9297 24.3225 68.5595C24.4959 68.1893 24.7587 67.7613 25.1152 67.2824C25.4826 66.7939 25.9326 66.2558 26.4652 65.6668L26.3262 65.5401L26.1459 65.4865C25.8721 66.4044 25.5913 67.2466 25.3037 68.0118L25.4799 68.0778L25.3051 68.009C24.9913 68.8141 24.7312 69.3728 24.5386 69.6673L24.6954 69.7692L24.6982 69.7747ZM41.6542 46.2378L41.478 46.1717C40.8711 47.7997 40.2986 49.5929 39.7606 51.5512L39.5596 52.282L40.0785 51.7301C40.2918 51.503 40.4569 51.3255 40.5753 51.1975C40.6344 51.1328 40.6812 51.0819 40.717 51.042C40.7528 51.0007 40.7748 50.976 40.7941 50.9512L40.6441 50.8383L40.7776 50.9705C40.7886 50.9594 40.8023 50.9443 40.8243 50.9209C40.8918 50.8494 41.0253 50.7021 41.2262 50.4805C41.4959 50.1833 41.6748 49.981 41.7698 49.864C41.8565 49.7567 42.0354 49.5434 42.3037 49.2282C42.5735 48.9089 42.7689 48.6626 42.8928 48.4796C43.0097 48.3075 43.1749 48.064 43.3882 47.7474C43.6056 47.4254 43.7625 47.1529 43.8602 46.9217C43.9497 46.707 44.0543 46.4511 44.1712 46.1552C44.2923 45.8469 44.3666 45.5662 44.39 45.3088C44.3997 45.2029 44.4038 45.0955 44.4038 44.9854C44.4038 44.8395 44.3955 44.6909 44.379 44.5395C44.3488 44.2643 44.2744 44.0042 44.1547 43.7647C44.0653 43.5858 43.9689 43.4427 43.8533 43.3368C43.7377 43.2308 43.5932 43.162 43.4391 43.1633C43.2891 43.1633 43.1487 43.2225 43.0207 43.3175C42.8281 43.4592 42.6478 43.6822 42.4593 43.9877C42.2721 44.2932 42.078 44.6827 41.8744 45.1574L42.0464 45.2318L41.8758 45.1547C41.7505 45.4354 41.617 45.7616 41.4794 46.1359L41.4684 46.1676V46.2433H41.6556H41.8427V46.202H41.6556L41.8317 46.2666C41.968 45.8978 42.0973 45.5799 42.2184 45.3088V45.3061C42.4826 44.6868 42.729 44.2271 42.9464 43.934C43.0551 43.7881 43.1556 43.6835 43.2409 43.6216C43.3263 43.5583 43.3909 43.5404 43.4377 43.5404C43.4845 43.5404 43.5313 43.5556 43.6001 43.6161C43.6662 43.6753 43.7432 43.7813 43.8176 43.934C43.9166 44.1349 43.9799 44.3496 44.0047 44.5836C44.0199 44.7226 44.0267 44.8574 44.0267 44.9882C44.0267 45.0873 44.0226 45.1836 44.0143 45.2785C43.9965 45.4877 43.9332 45.7368 43.8203 46.0203C43.7033 46.3148 43.6015 46.568 43.512 46.78C43.4295 46.9754 43.285 47.2314 43.0758 47.541C42.8625 47.8575 42.6973 48.1011 42.5817 48.2731C42.4716 48.4355 42.2817 48.6764 42.0161 48.9887C41.7478 49.3066 41.5689 49.5186 41.4767 49.6314C41.3927 49.736 41.2138 49.9383 40.9468 50.2328C40.8133 50.3814 40.7087 50.4943 40.6358 50.5755C40.5986 50.6154 40.5698 50.6471 40.5477 50.6704C40.5271 50.6938 40.512 50.709 40.5092 50.7117L40.5009 50.7214L40.4927 50.731C40.4927 50.731 40.4679 50.7613 40.4349 50.7971C40.3344 50.9099 40.1225 51.1383 39.8046 51.4783L39.9408 51.6063L40.1225 51.6558C40.6578 49.7071 41.2262 47.925 41.829 46.3079L41.8413 46.2763V46.2419H41.6542V46.2378Z" fill="black"></path><path d="M47.4199 58.5826C47.5507 58.5619 47.6704 58.5895 47.7805 58.6652C47.8906 58.7408 47.9566 58.8441 47.9773 58.9748C47.9979 59.1055 47.9677 59.2253 47.8851 59.3354C47.6649 59.6381 47.4144 59.9615 47.1323 60.3042C46.8502 60.6482 46.4621 61.0776 45.9667 61.5937C45.4712 62.1097 44.9483 62.5295 44.3992 62.8515C43.8487 63.1749 43.3478 63.3359 42.8937 63.3359C42.6047 63.3359 42.3363 63.274 42.0886 63.1501C41.7858 62.9712 41.5973 62.6272 41.5216 62.118C41.4459 61.6088 41.4776 61.0184 41.6138 60.3441C41.7514 59.6711 41.8959 59.0725 42.0473 58.5496C42.1987 58.028 42.3707 57.505 42.5634 56.9821C42.6047 56.8582 42.6831 56.7688 42.8001 56.7137C42.917 56.6587 43.0368 56.6518 43.1606 56.6931C43.2432 56.7206 43.312 56.7688 43.3671 56.8376C43.4221 56.9064 43.4565 56.9793 43.4703 57.0536C43.484 57.1293 43.4772 57.2147 43.4496 57.311C43.1606 58.1092 42.9239 58.8964 42.7381 59.6725C42.5524 60.4501 42.4533 61.0515 42.4395 61.4781C42.4257 61.9047 42.467 62.1799 42.5634 62.3038C43.0175 62.5515 43.6973 62.2873 44.6056 61.5097C45.5125 60.7336 46.3451 59.8225 47.102 58.7766C47.1846 58.6665 47.2906 58.6018 47.4213 58.5812L47.4199 58.5826ZM42.8923 55.127C42.6583 55.127 42.5069 55.0169 42.4381 54.7967C42.3831 54.6728 42.3858 54.5531 42.4478 54.4361C42.5097 54.3192 42.6019 54.2338 42.7258 54.1788C42.7533 54.1788 42.7973 54.165 42.8606 54.1375C42.9226 54.11 42.9872 54.0825 43.056 54.0549C43.1249 54.0274 43.1909 53.9999 43.2528 53.9724C43.3148 53.9448 43.3932 53.9104 43.4895 53.8691L43.8611 54.776C43.4207 54.955 43.1455 55.0582 43.0354 55.0857C42.9941 55.1132 42.9459 55.127 42.8909 55.127H42.8923Z" fill="black"></path><path d="M47.4202 58.5832L47.449 58.769C47.4683 58.7663 47.4848 58.7649 47.5027 58.7649C47.5647 58.7649 47.6156 58.7814 47.6747 58.8213C47.7105 58.8461 47.7353 58.8722 47.7546 58.9011C47.7725 58.93 47.7848 58.963 47.7917 59.0057C47.7945 59.0222 47.7959 59.0387 47.7959 59.0539C47.7959 59.1144 47.7793 59.164 47.7339 59.2245V59.2273C47.5165 59.5273 47.2674 59.8466 46.988 60.1879C46.7114 60.5264 46.3247 60.953 45.832 61.4663C45.3476 61.9714 44.8384 62.3801 44.3045 62.6925C43.7733 63.0049 43.3026 63.1522 42.8939 63.1508C42.6324 63.1508 42.3943 63.0957 42.1728 62.9843L42.0888 63.1522L42.1838 62.9911C42.064 62.9196 41.9649 62.8177 41.8838 62.6705C41.8026 62.5232 41.742 62.332 41.7062 62.0939C41.6815 61.9232 41.6677 61.7429 41.6677 61.5503C41.6677 61.1994 41.7104 60.8113 41.7971 60.386C41.9347 59.7158 42.0778 59.1227 42.2264 58.6066C42.3764 58.0892 42.5471 57.5703 42.7384 57.0515V57.0488L42.7397 57.046C42.7535 57.0047 42.7714 56.9758 42.792 56.9511C42.8141 56.9263 42.8402 56.9057 42.8787 56.8878C42.9228 56.8671 42.9627 56.8589 43.0026 56.8589C43.0329 56.8589 43.0645 56.8644 43.1003 56.8754C43.1498 56.8933 43.1856 56.9167 43.22 56.9593C43.2586 57.0089 43.2778 57.0502 43.2861 57.0928C43.2888 57.1052 43.2902 57.1203 43.2902 57.1369C43.2902 57.1713 43.2847 57.2139 43.2696 57.2648L43.4499 57.3158L43.2737 57.2525C42.9833 58.0561 42.7439 58.8502 42.5553 59.6346C42.3682 60.4191 42.2663 61.0287 42.2512 61.4773C42.2498 61.5338 42.2484 61.5861 42.2484 61.6384C42.2484 61.8159 42.2595 61.9659 42.2828 62.0953C42.3076 62.2232 42.3434 62.332 42.4136 62.4242L42.437 62.4544L42.4714 62.4737C42.6104 62.5494 42.7659 62.5865 42.9297 62.5865C43.187 62.5865 43.4595 62.4998 43.7567 62.3443C44.0526 62.1875 44.3747 61.959 44.7256 61.6576C45.6449 60.8704 46.4871 59.9484 47.2509 58.8915L47.0981 58.7814L47.2481 58.8942C47.277 58.8557 47.3059 58.8296 47.3376 58.8103C47.3692 58.791 47.4036 58.7786 47.4463 58.7718L47.4174 58.586L47.3885 58.4002C47.3004 58.414 47.2165 58.4442 47.1408 58.4896C47.0665 58.5351 47.0004 58.597 46.9467 58.6685H46.9454V58.6713C46.1967 59.7062 45.3751 60.6062 44.4792 61.3714C44.1421 61.6604 43.8407 61.8737 43.5792 62.0113C43.3177 62.1503 43.0976 62.2109 42.9283 62.2109C42.8196 62.2109 42.7301 62.1875 42.6489 62.1434L42.5595 62.3086L42.7081 62.193C42.6943 62.1778 42.6668 62.12 42.6503 62.0251C42.6324 61.9301 42.6214 61.7994 42.6214 61.6384C42.6214 61.5916 42.6214 61.542 42.6241 61.4897C42.6365 61.0865 42.7342 60.492 42.9173 59.7213C43.1017 58.952 43.337 58.1717 43.6233 57.3804L43.626 57.3749V57.3681C43.6494 57.2896 43.6632 57.2125 43.6632 57.1369C43.6632 57.0997 43.6604 57.0625 43.6535 57.0254C43.6329 56.9153 43.5833 56.8134 43.5118 56.7254C43.4361 56.6304 43.3343 56.5575 43.2187 56.5203C43.1485 56.4969 43.0755 56.4845 43.0026 56.4845C42.9049 56.4845 42.8085 56.5066 42.7191 56.5492C42.6407 56.5864 42.5691 56.6387 42.5113 56.7033C42.4535 56.768 42.4108 56.8451 42.3833 56.9277L42.5608 56.9868L42.3847 56.9222C42.1906 57.4492 42.0172 57.9763 41.8645 58.502C41.7117 59.0305 41.5659 59.6346 41.4282 60.3117C41.3374 60.7576 41.292 61.1705 41.292 61.5517C41.292 61.7608 41.3058 61.9604 41.3347 62.1503C41.3746 62.4214 41.4461 62.6554 41.5548 62.8522C41.6622 63.0489 41.8094 63.2072 41.9925 63.3146L41.998 63.3187L42.0035 63.3214C42.2773 63.4577 42.576 63.5265 42.8911 63.5265C43.3907 63.5265 43.9233 63.3503 44.4916 63.0159C45.0586 62.6829 45.594 62.2521 46.1004 61.7251C46.5972 61.2076 46.988 60.7741 47.2757 60.4246C47.5591 60.0791 47.8124 59.753 48.0353 59.4461L47.8839 59.336L48.0339 59.4488C48.1206 59.3346 48.1716 59.1956 48.1702 59.0525C48.1702 59.0167 48.1674 58.9823 48.1619 58.9465C48.1482 58.8585 48.1179 58.7745 48.0711 58.7002C48.0243 58.6259 47.961 58.5626 47.8867 58.5117C47.7725 58.4332 47.639 58.3892 47.5013 58.3892C47.4642 58.3892 47.427 58.3919 47.3899 58.3974L47.4188 58.5832H47.4202ZM42.8925 55.1276V54.9405C42.8044 54.9405 42.7521 54.9212 42.7136 54.8937C42.6764 54.8661 42.6434 54.8235 42.6173 54.7423L42.6145 54.7313L42.6104 54.7216C42.5939 54.6845 42.5884 54.6542 42.587 54.6253C42.587 54.5937 42.5939 54.5634 42.6145 54.5248C42.6585 54.4437 42.715 54.3914 42.803 54.3501L42.7274 54.1781V54.3652C42.7714 54.3652 42.803 54.357 42.8375 54.3459C42.8705 54.3363 42.9035 54.3225 42.9393 54.306L42.8622 54.1354L42.9379 54.3074C42.9985 54.2813 43.0618 54.2537 43.1292 54.2276H43.1278C43.1994 54.2001 43.2668 54.1712 43.3315 54.1423C43.3921 54.1161 43.4705 54.0817 43.5655 54.0404L43.4911 53.8684L43.3177 53.94L43.6893 54.8469L43.8627 54.7753L43.7925 54.6019C43.5737 54.6914 43.3962 54.7616 43.2613 54.8111C43.1278 54.862 43.0315 54.8937 42.993 54.9033L42.9599 54.9116L42.9324 54.9308C42.9255 54.935 42.9186 54.9391 42.8939 54.9405V55.3162C42.9792 55.3162 43.0686 55.2941 43.1443 55.2418L43.0384 55.0863L43.0838 55.268C43.1553 55.2501 43.2517 55.2157 43.3934 55.1634C43.5338 55.1111 43.7141 55.0395 43.9343 54.9501L44.109 54.8799L43.5944 53.6221L43.4196 53.6964C43.3219 53.7377 43.242 53.7721 43.1801 53.801C43.1209 53.8285 43.0576 53.8546 42.9916 53.8808H42.9902C42.92 53.9097 42.8526 53.9386 42.7893 53.9661H42.7879C42.7618 53.9785 42.7411 53.9868 42.7301 53.9895L42.7205 53.9923L42.7315 54.0501V53.9909H42.7205L42.7315 54.0487V53.9895H42.6916L42.6558 54.006C42.4975 54.0762 42.3682 54.1959 42.2883 54.3473C42.2429 54.4326 42.2168 54.5276 42.2168 54.6239C42.2168 54.7093 42.2374 54.7946 42.2718 54.873L42.4439 54.796L42.265 54.8524C42.3076 54.99 42.3847 55.1139 42.4989 55.1964C42.6131 55.279 42.7521 55.3148 42.898 55.3148V55.1276H42.8925Z" fill="black"></path><path d="M53.8547 62.2549C53.9855 62.2205 54.1052 62.237 54.2153 62.3058C54.3254 62.3746 54.397 62.4751 54.4314 62.6045C54.4658 62.7352 54.4479 62.8549 54.3791 62.965C54.3378 63.0476 54.2717 63.1536 54.1836 63.2843C54.0942 63.415 53.9222 63.6215 53.6676 63.9022C53.413 64.183 53.1446 64.4348 52.8625 64.655C52.5804 64.8752 52.2267 65.0747 51.8001 65.2536C51.3735 65.4325 50.94 65.522 50.501 65.522C50.2808 65.522 50.0606 65.5013 49.8404 65.4601C48.4931 65.1986 47.5711 64.2944 47.077 62.7476C46.5816 61.2008 46.5541 59.1475 46.9944 56.5905C47.1734 55.5309 47.4348 54.4148 47.7789 53.2381C48.1229 52.0629 48.5275 50.9179 48.9954 49.8032C49.462 48.6898 49.9574 47.6921 50.4803 46.8127C51.0033 45.9333 51.5565 45.2411 52.1414 44.7402C52.7263 44.2379 53.2864 44.0287 53.8231 44.1113C53.8506 44.1113 53.8781 44.1182 53.9057 44.1319C54.3185 44.2695 54.6006 44.5585 54.752 44.9989C54.9447 45.5907 54.8511 46.5045 54.474 47.743C54.0956 48.9816 53.607 50.2188 53.0098 51.456C52.4111 52.6932 51.6927 54.0487 50.8547 55.5199C50.0152 56.991 49.3794 58.0768 48.9459 58.7787C48.5124 59.4805 48.1243 60.0984 47.7803 60.6351C47.7527 60.6764 47.7183 60.7108 47.677 60.7384C47.8422 62.9802 48.6266 64.238 50.0289 64.5132C50.4129 64.582 50.7996 64.5573 51.1836 64.4417C51.5689 64.3247 51.8923 64.1706 52.1524 63.9779C52.4139 63.7852 52.6643 63.5623 52.9052 63.3077C53.146 63.0531 53.307 62.8673 53.3896 62.7503C53.4722 62.6334 53.5272 62.5412 53.5547 62.471C53.6235 62.3609 53.7226 62.2893 53.8534 62.2549H53.8547ZM47.944 56.7364C47.8064 57.5208 47.7169 58.2695 47.6757 58.9851C48.8028 57.1974 49.8418 55.4304 50.79 53.684C51.7395 51.9376 52.5336 50.2532 53.1722 48.6293C53.8121 47.0068 54.035 45.9003 53.8424 45.3086C53.8011 45.1847 53.7323 45.0952 53.6359 45.0402H53.5946C53.2093 45.0402 52.7414 45.3842 52.1923 46.0723C51.6418 46.7604 51.0982 47.6398 50.5629 48.7119C50.0262 49.7853 49.5142 51.0431 49.0257 52.4867C48.5372 53.9304 48.1766 55.3478 47.9426 56.7364H47.944Z" fill="black"></path><path d="M53.8555 62.2542L53.9037 62.4358C53.934 62.4276 53.9601 62.4248 53.9835 62.4248C54.0317 62.4248 54.0702 62.4359 54.1184 62.4648C54.19 62.5102 54.2271 62.5625 54.2533 62.6519C54.2615 62.6808 54.2643 62.707 54.2643 62.7304C54.2643 62.7785 54.2533 62.8184 54.2244 62.8652L54.2202 62.8721L54.2161 62.8804C54.1817 62.9492 54.1198 63.051 54.0331 63.1776C53.9533 63.2932 53.784 63.4969 53.5321 63.7763C53.2844 64.0501 53.0243 64.2937 52.7518 64.507C52.4862 64.7134 52.1463 64.9061 51.7321 65.0795C51.3261 65.2488 50.9201 65.3327 50.5059 65.3327C50.2981 65.3327 50.0889 65.3135 49.8797 65.2735H49.8811C49.2384 65.1483 48.71 64.8758 48.2751 64.4492C47.8416 64.0226 47.5003 63.4391 47.2609 62.6877C47.0063 61.8923 46.8769 60.9509 46.8769 59.8638C46.8769 58.8963 46.9787 57.8146 47.1852 56.6201C47.3627 55.5687 47.6214 54.4581 47.9641 53.2883C48.3054 52.1186 48.7086 50.9805 49.1738 49.874C49.6375 48.7662 50.1302 47.7781 50.6476 46.9056C51.1623 46.0386 51.7046 45.3629 52.2688 44.8785C52.5096 44.672 52.7408 44.5207 52.9624 44.4229C53.184 44.3239 53.3945 44.2771 53.5996 44.2771C53.667 44.2771 53.7331 44.2826 53.7991 44.2922L53.8129 44.295H53.8266V44.2784L53.8225 44.295H53.8266V44.2784L53.8225 44.295H53.8266L53.8376 44.3018L53.85 44.306C54.0317 44.3665 54.1762 44.4573 54.2959 44.5785C54.4156 44.7009 54.5092 44.8564 54.578 45.0546L54.7556 44.9941L54.5767 45.0519C54.6345 45.2266 54.6647 45.4441 54.6647 45.7028C54.6647 46.2106 54.545 46.8739 54.2973 47.6831C53.9216 48.9107 53.4372 50.1396 52.8427 51.3699C52.2468 52.603 51.5298 53.9544 50.6931 55.4228C49.855 56.8926 49.2192 57.9784 48.7884 58.6761C48.3563 59.3766 47.9682 59.9945 47.6242 60.5298L47.7824 60.6317L47.6269 60.5271C47.6118 60.5491 47.5966 60.5642 47.576 60.5794L47.4852 60.6399L47.4934 60.75C47.5774 61.8895 47.8182 62.7923 48.2324 63.4597C48.4402 63.7928 48.6921 64.0666 48.988 64.2731C49.2838 64.4809 49.6224 64.6212 49.9953 64.6942H49.9967H49.9981C50.1508 64.7217 50.305 64.7355 50.4577 64.7355C50.7192 64.7355 50.9807 64.6955 51.2394 64.6171C51.6413 64.4946 51.9839 64.3322 52.266 64.1244C52.5372 63.9249 52.7959 63.6937 53.0436 63.4322C53.2858 63.1735 53.4509 62.9877 53.5445 62.8542C53.6312 62.7304 53.6918 62.6299 53.7303 62.5377L53.5555 62.4675L53.7152 62.5666C53.7606 62.4964 53.8115 62.4579 53.9023 62.4317L53.8542 62.2501L53.806 62.0684C53.6353 62.1111 53.4867 62.2184 53.3959 62.367L53.3876 62.3808L53.3808 62.3959C53.3629 62.4414 53.3147 62.5267 53.2363 62.6368C53.1661 62.7372 53.0051 62.9216 52.7684 63.1735C52.5344 63.4198 52.2908 63.6359 52.0403 63.8217C51.7995 63.9992 51.4968 64.1451 51.1279 64.2579C50.9022 64.3267 50.6779 64.3598 50.455 64.3598C50.3242 64.3598 50.1921 64.3487 50.0614 64.324L50.0284 64.5084L50.0641 64.324C49.7366 64.2593 49.4504 64.1396 49.1999 63.9634C48.8242 63.6992 48.5228 63.307 48.2957 62.7675C48.0701 62.2294 47.9242 61.5455 47.8636 60.7197L47.6765 60.7335L47.7811 60.8904C47.843 60.8491 47.8967 60.7954 47.9366 60.7349V60.7321C48.2806 60.1954 48.6701 59.5748 49.1036 58.8729C49.5398 58.1683 50.1756 57.0811 51.0151 55.6086C51.8559 54.1347 52.5757 52.7764 53.1771 51.5337C53.7785 50.2882 54.2711 49.0414 54.6524 47.7932C54.9056 46.962 55.0363 46.2684 55.0363 45.7028C55.0363 45.4152 55.0019 45.1592 54.9303 44.9363V44.9335C54.8478 44.6913 54.7253 44.4835 54.5615 44.317C54.3991 44.1505 54.1968 44.0266 53.9656 43.9495L53.9065 44.1271L53.989 43.9592C53.9395 43.9344 53.8831 43.9193 53.8239 43.9193V44.1064L53.8528 43.9206C53.7675 43.9069 53.6821 43.9014 53.5954 43.9014C53.3326 43.9014 53.0684 43.9619 52.8055 44.0789C52.5427 44.1959 52.2812 44.3679 52.0197 44.5936C51.4156 45.1124 50.8499 45.8211 50.3201 46.7129C49.793 47.6019 49.2935 48.6066 48.8228 49.7268C48.3522 50.847 47.9448 51.9988 47.5994 53.181C47.254 54.3631 46.9911 55.4875 46.8108 56.554C46.6017 57.7664 46.4971 58.8674 46.4971 59.861C46.4971 60.9785 46.6292 61.9569 46.8989 62.7992C47.1535 63.5946 47.521 64.2359 48.0081 64.7148C48.4953 65.1937 49.0994 65.5034 49.8054 65.6396H49.8068C50.038 65.6823 50.2692 65.7043 50.5018 65.7043C50.9669 65.7043 51.4266 65.6093 51.8738 65.4208C52.3115 65.2364 52.6803 65.03 52.9789 64.7974C53.2693 64.5703 53.5459 64.3116 53.8074 64.0226C54.0647 63.7377 54.2381 63.5299 54.3386 63.3854C54.4308 63.2492 54.4996 63.1391 54.5478 63.0427L54.3799 62.9588L54.5395 63.0579C54.6028 62.9574 54.6372 62.8418 54.6358 62.7248C54.6358 62.667 54.6276 62.6079 54.6124 62.5514C54.5684 62.3808 54.4624 62.2322 54.3138 62.14C54.2133 62.0767 54.0977 62.0423 53.9808 62.0423C53.9216 62.0423 53.8638 62.0505 53.806 62.0657L53.8542 62.2473L53.8555 62.2542ZM47.9448 56.7357L47.7604 56.7027C47.6214 57.4926 47.532 58.2495 47.4893 58.9734L47.4466 59.7L47.8347 59.0848C48.9646 57.2944 50.005 55.5233 50.9559 53.7728C51.9082 52.0209 52.705 50.3282 53.3477 48.6974C53.5954 48.0685 53.7826 47.5152 53.9078 47.0336C54.0331 46.5519 54.0977 46.1432 54.0977 45.8005C54.0977 45.5941 54.0744 45.411 54.0221 45.2487C53.9711 45.0904 53.8707 44.9542 53.7317 44.8757L53.6876 44.8509H53.5968C53.3464 44.8509 53.0986 44.9597 52.8454 45.1454C52.5922 45.3326 52.3293 45.601 52.0472 45.9533C51.4857 46.6551 50.9366 47.5455 50.3958 48.6272C49.855 49.7103 49.3389 50.9763 48.849 52.4268C48.3577 53.8801 47.9944 55.3058 47.759 56.7054L47.9434 56.7371L48.1292 56.7687C48.3604 55.3898 48.7196 53.9833 49.2054 52.548C49.6912 51.1098 50.2004 49.8603 50.7316 48.7965C51.2642 47.7327 51.8009 46.8629 52.3404 46.19C52.6087 45.8542 52.8537 45.6078 53.0684 45.451C53.283 45.2927 53.462 45.228 53.5968 45.2294H53.6381V45.0422L53.5445 45.2046C53.5968 45.2363 53.634 45.2789 53.6656 45.3684C53.7028 45.4799 53.7234 45.6257 53.7234 45.8033C53.7234 46.0978 53.6656 46.4803 53.5459 46.9414C53.4262 47.4024 53.2431 47.9432 52.9996 48.5625C52.3638 50.1768 51.5724 51.8557 50.627 53.5966C49.6802 55.3389 48.6439 57.1031 47.5182 58.888L47.6765 58.9885L47.8636 58.9995C47.9049 58.2921 47.993 57.5504 48.1292 56.7728L47.9434 56.7398L47.9448 56.7357Z" fill="black"></path><path d="M60.7664 62.2549C60.8971 62.2205 61.0168 62.237 61.1269 62.3058C61.237 62.3746 61.3086 62.4751 61.343 62.6045C61.3774 62.7352 61.3595 62.8549 61.2907 62.965C61.2494 63.0476 61.1833 63.1536 61.0953 63.2843C61.0058 63.415 60.8338 63.6215 60.5792 63.9022C60.3246 64.183 60.0563 64.4348 59.7741 64.655C59.492 64.8752 59.1383 65.0747 58.7117 65.2536C58.2851 65.4325 57.8516 65.522 57.4126 65.522C57.1924 65.522 56.9722 65.5013 56.752 65.4601C55.4047 65.1986 54.4827 64.2944 53.9886 62.7476C53.4946 61.2008 53.4657 59.1475 53.9061 56.5905C54.085 55.5309 54.3465 54.4148 54.6905 53.2381C55.0345 52.0629 55.4391 50.9179 55.9071 49.8032C56.3736 48.6898 56.869 47.6921 57.392 46.8127C57.9149 45.9333 58.4681 45.2411 59.053 44.7402C59.6379 44.2379 60.198 44.0287 60.7347 44.1113C60.7622 44.1113 60.7898 44.1182 60.8173 44.1319C61.2301 44.2695 61.5123 44.5585 61.6636 44.9989C61.8563 45.5907 61.7627 46.5045 61.3843 47.743C61.0058 48.9816 60.5173 50.2188 59.92 51.456C59.3214 52.6932 58.603 54.0487 57.7649 55.5199C56.9254 56.991 56.2896 58.0768 55.8561 58.7787C55.4226 59.4805 55.0345 60.0984 54.6905 60.6351C54.663 60.6764 54.6286 60.7108 54.5873 60.7384C54.7524 62.9802 55.5369 64.238 56.9392 64.5132C57.3231 64.582 57.7099 64.5573 58.0938 64.4417C58.4791 64.3247 58.8025 64.1706 59.0626 63.9779C59.3241 63.7852 59.5746 63.5623 59.8154 63.3077C60.0563 63.0531 60.2173 62.8673 60.2998 62.7503C60.3824 62.6334 60.4375 62.5412 60.465 62.471C60.5338 62.3609 60.6329 62.2893 60.7636 62.2549H60.7664ZM54.8556 56.7364C54.718 57.5208 54.6286 58.2695 54.5873 58.9851C55.7144 57.1974 56.7534 55.4304 57.7016 53.684C58.6512 51.9376 59.4452 50.2532 60.0838 48.6293C60.7237 47.0068 60.9466 45.9003 60.754 45.3086C60.7127 45.1847 60.6439 45.0952 60.5476 45.0402H60.5063C60.1209 45.0402 59.653 45.3842 59.1039 46.0723C58.5535 46.7604 58.0099 47.6398 57.4745 48.7119C56.9378 49.7853 56.4259 51.0431 55.9373 52.4867C55.4488 53.9304 55.0882 55.3478 54.8543 56.7364H54.8556Z" fill="black"></path><path d="M60.7657 62.255L60.8139 62.4366C60.8441 62.4284 60.8703 62.4256 60.8937 62.4256C60.9418 62.4256 60.9804 62.4366 61.0285 62.4655C61.1001 62.511 61.1373 62.5633 61.1634 62.6527C61.1717 62.6816 61.1744 62.7078 61.1744 62.7312C61.1744 62.7793 61.1634 62.8192 61.1345 62.866L61.1304 62.8729L61.1263 62.8812C61.0919 62.95 61.0299 63.0518 60.9432 63.1784C60.8634 63.294 60.6941 63.4977 60.4423 63.7771C60.1946 64.0509 59.9345 64.2945 59.662 64.5078C59.3964 64.7142 59.0565 64.9069 58.6422 65.0803C58.2363 65.2496 57.8303 65.3335 57.4161 65.3335C57.2069 65.3335 56.9991 65.3143 56.7899 65.2743H56.7913C56.1486 65.1491 55.6201 64.8766 55.1853 64.45C54.7518 64.0234 54.4105 63.4399 54.171 62.6885C53.9164 61.8917 53.7871 60.949 53.7871 59.8604C53.7871 58.8943 53.8889 57.814 54.0953 56.6195C54.2728 55.5681 54.5316 54.4575 54.8742 53.2878C55.2155 52.118 55.6188 50.9799 56.0839 49.8734C56.5477 48.7656 57.0404 47.7775 57.5578 46.905C58.0725 46.038 58.6147 45.3623 59.179 44.8779C59.4198 44.6715 59.651 44.5201 59.8725 44.4224C60.0941 44.3233 60.3047 44.2765 60.5097 44.2765C60.5772 44.2765 60.6432 44.282 60.7093 44.2916L60.723 44.2944H60.7368V44.2779L60.7327 44.2944H60.7368V44.2779L60.7327 44.2944H60.7368L60.7478 44.3013L60.7602 44.3054C60.9418 44.3659 61.0863 44.4568 61.2061 44.5779C61.3258 44.7004 61.4194 44.8559 61.4882 45.054L61.6657 44.9935L61.4868 45.0513C61.5446 45.2261 61.5749 45.4435 61.5749 45.7008C61.5749 46.2087 61.4552 46.872 61.2075 47.6812C60.8318 48.9087 60.3473 50.1377 59.7528 51.368C59.1569 52.601 58.4399 53.9525 57.6032 55.4208C56.7651 56.8906 56.1293 57.9764 55.6986 58.6742C55.2665 59.3746 54.8784 59.9925 54.5343 60.5279L54.6926 60.6297L54.5371 60.5251C54.5219 60.5471 54.5068 60.5623 54.4862 60.5774L54.3953 60.638L54.4036 60.7481C54.4875 61.8875 54.7284 62.7903 55.1426 63.4578C55.3504 63.7908 55.6022 64.0647 55.8981 64.2711C56.194 64.4789 56.5325 64.6193 56.9055 64.6922H56.9069H56.9082C57.061 64.7197 57.2151 64.7335 57.3679 64.7335C57.6294 64.7335 57.8908 64.6936 58.1496 64.6152C58.5514 64.4927 58.8941 64.3303 59.1762 64.1225C59.4473 63.9229 59.706 63.6917 59.9537 63.4303C60.196 63.1715 60.3611 62.9857 60.4547 62.8523C60.5414 62.7284 60.6019 62.6279 60.6405 62.5357L60.4657 62.4655L60.6253 62.5646C60.6707 62.4944 60.723 62.4559 60.8125 62.4298L60.7643 62.2481L60.7162 62.0665C60.5455 62.1091 60.3969 62.2165 60.3061 62.3651L60.2978 62.3788L60.2909 62.394C60.273 62.4394 60.2249 62.5247 60.1464 62.6348C60.0762 62.7353 59.9152 62.9197 59.6785 63.1715C59.4446 63.4179 59.201 63.6339 58.9505 63.8197C58.7097 63.9972 58.4069 64.1431 58.0381 64.256C57.8124 64.3248 57.5881 64.3578 57.3651 64.3578C57.2344 64.3578 57.1023 64.3468 56.9715 64.322L56.9385 64.5064L56.9743 64.322C56.6468 64.2573 56.3605 64.1376 56.1101 63.9615C55.7344 63.6972 55.433 63.305 55.2059 62.7656C54.9802 62.2275 54.8343 61.5435 54.7738 60.7178L54.5866 60.7316L54.6912 60.8884C54.7531 60.8471 54.8068 60.7935 54.8467 60.7329V60.7302C55.1908 60.1935 55.5802 59.5728 56.0137 58.8709C56.45 58.1663 57.0858 57.0792 57.9252 55.6066C58.7661 54.1327 59.4858 52.7744 60.0872 51.5317C60.6886 50.2863 61.1813 49.0395 61.5625 47.7913C61.8157 46.9601 61.9465 46.2665 61.9465 45.7008C61.9465 45.4132 61.9121 45.1586 61.8405 44.9343V44.9316C61.7579 44.6893 61.6354 44.4815 61.4717 44.315C61.3093 44.1485 61.107 44.0246 60.8758 43.9476L60.8166 44.1251L60.8992 43.9572C60.8496 43.9324 60.7932 43.9173 60.734 43.9173V44.1045L60.7629 43.9187C60.6776 43.9049 60.5923 43.8994 60.5056 43.8994C60.2427 43.8994 59.9785 43.96 59.7157 44.0769C59.4528 44.1939 59.1913 44.3659 58.9299 44.5916C58.3257 45.1105 57.7601 45.8192 57.2303 46.711C56.7032 47.6 56.2036 48.6046 55.733 49.7248C55.2623 50.845 54.855 51.9969 54.5095 53.179C54.1641 54.3612 53.9013 55.4855 53.721 56.5521C53.5132 57.7617 53.4072 58.8627 53.4072 59.8549C53.4072 60.9738 53.5393 61.955 53.8091 62.7972C54.0637 63.5926 54.4311 64.2339 54.9183 64.7129C55.4054 65.1918 56.0096 65.5014 56.7156 65.6377H56.7183H56.717C56.9482 65.6803 57.1794 65.7023 57.4119 65.7023C57.8771 65.7023 58.3367 65.6074 58.784 65.4188C59.2216 65.2344 59.5904 65.028 59.8891 64.7954C60.1794 64.5684 60.4561 64.3096 60.7175 64.0206C60.9749 63.7358 61.1483 63.528 61.2487 63.3835C61.3409 63.2472 61.4098 63.1371 61.4579 63.0408L61.29 62.9568L61.4497 63.0559C61.5116 62.9555 61.5474 62.8399 61.546 62.7229C61.546 62.6651 61.5377 62.6059 61.5226 62.5481V62.544V62.5467C61.4786 62.3761 61.3726 62.2275 61.224 62.1366C61.1235 62.0733 61.0079 62.0389 60.8909 62.0389C60.8318 62.0389 60.774 62.0472 60.7162 62.0623L60.7643 62.244L60.7657 62.255ZM54.855 56.7365L54.6706 56.7035C54.5316 57.4934 54.4421 58.2503 54.3995 58.9742L54.3568 59.7008L54.7449 59.0856C55.8747 57.2952 56.9151 55.5241 57.8661 53.7736C58.8184 52.0217 59.6152 50.329 60.2579 48.6982C60.5056 48.0693 60.6928 47.516 60.818 47.0344C60.9432 46.5527 61.0079 46.144 61.0079 45.8013C61.0079 45.5949 60.9845 45.4118 60.9322 45.2495C60.8813 45.0912 60.7808 44.955 60.6418 44.8765L60.5978 44.8517H60.507C60.2565 44.8517 60.0088 44.9605 59.7556 45.1462C59.5024 45.3334 59.2395 45.6018 58.9574 45.9541C58.3959 46.6559 57.8468 47.5463 57.306 48.628C56.7651 49.711 56.2491 50.9771 55.7591 52.4276C55.2678 53.8809 54.9045 55.3066 54.6692 56.7062L54.8536 56.7379L55.0394 56.7695C55.2706 55.3906 55.6298 53.9841 56.1156 52.5487C56.6014 51.1106 57.1105 49.8611 57.6418 48.7973C58.1743 47.7335 58.711 46.8637 59.2505 46.1908C59.5189 45.855 59.7638 45.6086 59.9785 45.4518C60.1932 45.2935 60.3721 45.2288 60.507 45.2302H60.5483V45.043L60.4547 45.2054C60.507 45.2371 60.5441 45.2797 60.5758 45.3692C60.6129 45.4807 60.6336 45.6252 60.6336 45.8027C60.6336 46.0972 60.5758 46.4798 60.4561 46.9408C60.3363 47.4018 60.1547 47.9427 59.9097 48.5619C59.2739 50.1762 58.4826 51.8551 57.5372 53.596C56.5903 55.3383 55.5541 57.1025 54.4284 58.8875L54.5866 58.9879L54.7738 58.9989C54.8151 58.2916 54.9031 57.5498 55.0394 56.7723L54.8536 56.7392L54.855 56.7365Z" fill="black"></path><path d="M66.4801 59.6454C66.6108 59.6867 66.7072 59.7692 66.7691 59.8931C66.831 60.017 66.8407 60.1408 66.7994 60.2647C66.7581 60.3885 66.6755 60.478 66.5516 60.533C66.4416 60.5881 66.1938 60.705 65.8085 60.8839C65.203 61.1592 64.68 61.4069 64.241 61.6271C64.7089 62.673 64.6745 63.5868 64.1378 64.3712C63.6286 65.113 62.9694 65.7157 62.1575 66.1768C61.3455 66.6378 60.6175 66.8676 59.9707 66.8676C59.7918 66.8676 59.6336 66.847 59.4959 66.8057C58.9317 66.6681 58.6234 66.3171 58.5684 65.7529C58.417 64.3643 59.8606 62.8574 62.9006 61.2349C62.708 60.9459 62.4396 60.5812 62.0956 60.1408C61.9167 59.9069 61.7859 59.7321 61.7033 59.6151C61.6208 59.4981 61.5244 59.3536 61.4143 59.1816C61.3043 59.0096 61.2217 58.8596 61.1666 58.7275C61.1116 58.5967 61.0841 58.4687 61.0841 58.3463C61.0565 58.0022 61.0937 57.6761 61.1969 57.3664C61.3001 57.0568 61.4336 56.7925 61.5988 56.5724C61.7639 56.3522 61.9703 56.143 62.218 55.9434C62.4658 55.7439 62.6956 55.5856 62.9089 55.4687C63.1222 55.3517 63.3424 55.2457 63.5695 55.1494C63.7965 55.053 63.9575 54.9911 64.0539 54.9636C64.1502 54.9361 64.2328 54.9085 64.3016 54.881C64.4254 54.8535 64.5452 54.87 64.6621 54.9319C64.7791 54.9939 64.8548 55.0902 64.8892 55.2209C64.9236 55.3517 64.9057 55.4755 64.8369 55.5925C64.7681 55.7095 64.6718 55.7824 64.5479 55.81C64.4929 55.8237 64.3965 55.8554 64.2589 55.9022C64.1213 55.9503 63.9107 56.0467 63.63 56.1912C63.3479 56.3357 63.0905 56.4967 62.8566 56.6756C62.6226 56.8545 62.4203 57.0843 62.2483 57.3664C62.0763 57.6485 62.0034 57.9472 62.0323 58.2637C62.046 58.4151 62.3213 58.8417 62.858 59.5422C63.2708 60.0789 63.5736 60.4917 63.7649 60.7794C64.164 60.5867 64.7076 60.3321 65.3943 60.017C65.7658 59.838 66.0053 59.728 66.1168 59.6867C66.2269 59.6179 66.3466 59.6041 66.4773 59.6454H66.4801ZM63.3548 63.8125C63.6713 63.3446 63.6782 62.7666 63.3754 62.0799C60.707 63.5097 59.4216 64.7001 59.518 65.6483C59.5317 65.7584 59.6005 65.8341 59.7244 65.8754C60.1372 65.9855 60.7249 65.841 61.4887 65.4419C62.2524 65.0428 62.8745 64.4992 63.3548 63.8125Z" fill="black"></path><path d="M66.4794 59.6455L66.423 59.8244C66.467 59.8382 66.5001 59.8575 66.5276 59.8809C66.5551 59.9056 66.5799 59.9345 66.6005 59.9772C66.6267 60.0295 66.6363 60.0722 66.6363 60.1148C66.6363 60.1437 66.6322 60.1726 66.6212 60.2043C66.6074 60.2428 66.5909 60.2717 66.5689 60.2965C66.5469 60.3213 66.518 60.3419 66.4767 60.3598H66.4725L66.4684 60.3639C66.3624 60.4162 66.1147 60.5346 65.7308 60.7121H65.7322C65.1253 60.9873 64.6009 61.235 64.1578 61.4566L63.9968 61.5364L64.0697 61.7002C64.2789 62.1681 64.3807 62.6002 64.3807 62.9993C64.3807 63.4562 64.25 63.8704 63.9844 64.2613C63.4917 64.9796 62.8545 65.5604 62.066 66.009C61.2733 66.459 60.5728 66.6765 59.9728 66.6751C59.809 66.6751 59.6687 66.6558 59.5517 66.6214H59.5462L59.5421 66.6187C59.2875 66.5554 59.1086 66.4522 58.9833 66.3104C58.8595 66.1687 58.781 65.9829 58.7563 65.731V65.7283C58.7494 65.6677 58.7466 65.6044 58.7466 65.5411C58.7466 65.2425 58.8278 64.9342 58.9971 64.6094C59.2517 64.1237 59.71 63.6048 60.376 63.0667C61.0421 62.5287 61.9146 61.9699 62.9894 61.3961L63.1724 61.2983L63.0568 61.1263C62.8601 60.8318 62.5889 60.4644 62.2449 60.0212C62.0674 59.79 61.9366 59.6153 61.8568 59.5024C61.777 59.3882 61.682 59.2465 61.5733 59.0758C61.4674 58.9107 61.3903 58.7675 61.3407 58.6519C61.294 58.5405 61.2733 58.4386 61.2733 58.3423V58.3272C61.2678 58.2597 61.2651 58.1923 61.2651 58.1276C61.2651 57.8813 61.3022 57.6473 61.3779 57.423C61.4756 57.1285 61.6008 56.8835 61.7522 56.6826C61.9064 56.4776 62.1018 56.278 62.3385 56.0867C62.5793 55.8927 62.8009 55.7413 63.0018 55.6312C63.2096 55.517 63.4243 55.4138 63.6445 55.3202C63.8674 55.2252 64.0271 55.1647 64.1069 55.1427C64.2073 55.1138 64.2954 55.0849 64.3725 55.0546L64.3023 54.8798L64.3436 55.0628C64.3697 55.0573 64.3931 55.0546 64.4165 55.0546C64.4688 55.0546 64.5184 55.067 64.5762 55.0972C64.6133 55.1179 64.6395 55.1399 64.6601 55.1661C64.6807 55.1922 64.6973 55.2252 64.7096 55.2693C64.7179 55.2968 64.7207 55.3243 64.7207 55.3491C64.7207 55.3986 64.7083 55.444 64.678 55.4963C64.6546 55.5363 64.6298 55.5638 64.6037 55.583C64.5775 55.6023 64.5486 55.6161 64.5101 55.6243H64.5073H64.5046C64.4372 55.6408 64.3395 55.6725 64.2005 55.722C64.0463 55.7757 63.833 55.8748 63.5481 56.0207C63.2564 56.1693 62.9894 56.3372 62.7458 56.523C62.4912 56.717 62.2738 56.9661 62.0908 57.2661C61.9256 57.5345 61.8403 57.8262 61.8403 58.1304C61.8403 58.1799 61.843 58.2281 61.8472 58.2776C61.8513 58.3203 61.8609 58.3561 61.8747 58.3946C61.9215 58.5226 62.0109 58.674 62.1486 58.8818C62.2862 59.0882 62.4733 59.3455 62.71 59.6538C63.1215 60.1878 63.4215 60.5992 63.6101 60.8814L63.7009 61.0176L63.8482 60.946C64.2459 60.7547 64.7881 60.5002 65.4748 60.185H65.4776C65.662 60.0956 65.8147 60.024 65.9331 59.9703C66.0514 59.9167 66.1381 59.8795 66.1835 59.8616L66.2014 59.8547L66.2179 59.8451C66.2606 59.8189 66.295 59.8093 66.3363 59.8093C66.3611 59.8093 66.39 59.8134 66.423 59.8244L66.4794 59.6455L66.5358 59.4666C66.4712 59.446 66.4037 59.435 66.3363 59.435C66.2248 59.435 66.1134 59.468 66.0184 59.5286L66.1175 59.6882L66.0514 59.5121C65.9867 59.5354 65.8973 59.5754 65.7748 59.6304C65.6523 59.6868 65.4996 59.7584 65.3124 59.8478L65.3936 60.0171L65.3152 59.8465C64.6271 60.163 64.0835 60.4176 63.6816 60.6116L63.7628 60.7809L63.9183 60.6763C63.7215 60.3818 63.4174 59.9662 63.0032 59.4281C62.7362 59.0799 62.5366 58.8006 62.4032 58.5955C62.3371 58.4923 62.2876 58.4084 62.2559 58.345C62.2408 58.3134 62.2298 58.2886 62.2229 58.2707L62.216 58.2501V58.246L62.2036 58.2487H62.216V58.246L62.2036 58.2487H62.216C62.2132 58.2088 62.2105 58.1716 62.2105 58.1331C62.2105 57.8992 62.2738 57.6817 62.4059 57.4657C62.5669 57.2001 62.7541 56.9895 62.9674 56.8257C63.1917 56.6551 63.4394 56.4982 63.7133 56.3592C63.9913 56.2161 64.1977 56.1225 64.3188 56.0798C64.4523 56.0331 64.5486 56.0028 64.5913 55.9918L64.5459 55.8101L64.5872 55.9931C64.6725 55.9739 64.7537 55.9381 64.8239 55.8858C64.8941 55.8335 64.9519 55.7661 64.9973 55.689C65.0578 55.5858 65.0922 55.4688 65.0922 55.3505C65.0922 55.2913 65.084 55.2335 65.0688 55.1757C65.0454 55.0876 65.0069 55.0064 64.9519 54.9376C64.8968 54.8674 64.8266 54.811 64.7482 54.7683C64.6436 54.7133 64.5294 54.6816 64.4124 54.6816C64.3601 54.6816 64.3092 54.6871 64.2583 54.6995L64.2431 54.7023L64.2294 54.7078C64.1688 54.7326 64.0917 54.7573 63.9995 54.7849C63.8867 54.8179 63.7243 54.8812 63.4931 54.9775C63.2605 55.0766 63.0348 55.1853 62.816 55.3051C62.5903 55.4289 62.3509 55.5941 62.0976 55.7977C61.8403 56.0055 61.6215 56.2257 61.4467 56.461C61.2678 56.7005 61.1247 56.984 61.016 57.3088C60.9279 57.5716 60.8838 57.8482 60.8838 58.1331C60.8838 58.2088 60.8866 58.2859 60.8935 58.3629L61.0806 58.3478H60.8935C60.8935 58.4992 60.9279 58.6519 60.9912 58.8019C61.0517 58.9464 61.1398 59.1061 61.254 59.2836C61.3655 59.457 61.4632 59.6043 61.5485 59.724C61.6339 59.8451 61.7646 60.0212 61.9449 60.2552C62.2862 60.6928 62.5532 61.0548 62.7417 61.3369L62.8972 61.2323L62.8091 61.0671C61.3545 61.8433 60.2563 62.5961 59.5104 63.3337C59.1375 63.7025 58.854 64.07 58.6613 64.4374C58.4686 64.8049 58.3668 65.1751 58.3682 65.5425C58.3682 65.6182 58.3723 65.6939 58.3806 65.7696L58.5677 65.7489L58.3806 65.7668C58.4108 66.0778 58.5154 66.3489 58.6998 66.5581C58.8842 66.7673 59.1416 66.9077 59.4512 66.982L59.4953 66.799L59.4416 66.9792C59.6012 67.0274 59.7774 67.0494 59.9701 67.0494C60.6623 67.0494 61.4192 66.8045 62.249 66.3338C63.083 65.8604 63.767 65.237 64.2913 64.4718C64.5982 64.0246 64.7551 63.5278 64.7537 62.9979C64.7537 62.5355 64.6367 62.0511 64.411 61.5461L64.239 61.6231L64.3229 61.791C64.7606 61.5722 65.2808 61.3259 65.8849 61.052H65.8863C66.2716 60.8717 66.5193 60.7547 66.6336 60.6983L66.5496 60.5304L66.6253 60.7025C66.7079 60.6667 66.7822 60.6144 66.8427 60.5497C66.9033 60.485 66.9473 60.4066 66.9762 60.3213C66.9982 60.2538 67.0106 60.1836 67.0106 60.1134C67.0106 60.0075 66.9831 59.9029 66.9349 59.8066C66.8937 59.724 66.8386 59.6524 66.7698 59.5932C66.701 59.5341 66.6212 59.4914 66.5345 59.4639L66.478 59.6428L66.4794 59.6455ZM63.3541 63.8126L63.5096 63.9172C63.6926 63.6489 63.7848 63.3392 63.7848 63.0089C63.7848 62.6924 63.7023 62.358 63.5468 62.0043L63.4656 61.8185L63.2867 61.9149C61.9931 62.6085 61.0173 63.247 60.3554 63.8402C60.0237 64.1374 59.7705 64.4237 59.5957 64.7058C59.421 64.9865 59.326 65.2673 59.326 65.5453C59.326 65.5852 59.3274 65.6265 59.3315 65.6691V65.6719V65.6732C59.3425 65.7613 59.3797 65.848 59.4402 65.9154C59.5008 65.9829 59.5806 66.0269 59.6645 66.0544H59.67L59.6756 66.0572C59.7829 66.0861 59.8971 66.0999 60.0169 66.0999C60.4503 66.0985 60.9623 65.9292 61.5747 65.6099C62.3632 65.1985 63.0101 64.6328 63.5082 63.9214V63.9186L63.3527 63.814L63.1986 63.7067C62.7334 64.37 62.1376 64.8916 61.3985 65.2783C60.815 65.5838 60.3458 65.7269 60.0141 65.7255C59.9219 65.7255 59.8421 65.7159 59.7705 65.6966L59.7223 65.8783L59.7815 65.7008C59.7416 65.687 59.7237 65.6732 59.7168 65.665C59.71 65.6554 59.7058 65.6512 59.7017 65.6278L59.5159 65.6512L59.7031 65.632C59.7003 65.6044 59.699 65.5769 59.699 65.5466C59.699 65.3581 59.765 65.1448 59.9123 64.9053C60.1338 64.5461 60.5412 64.1347 61.1343 63.6888C61.7274 63.2429 62.5036 62.7612 63.4614 62.2479L63.3734 62.0828L63.2013 62.1585C63.3417 62.4764 63.4078 62.7612 63.4078 63.0131C63.4078 63.2759 63.339 63.5016 63.1972 63.7108L63.3527 63.8154L63.3541 63.8126Z" fill="black"></path><path d="M71.5535 58.5826C71.6842 58.5619 71.8039 58.5895 71.914 58.6652C72.0241 58.7408 72.0888 58.8441 72.1095 58.9748C72.1301 59.1055 72.0998 59.2253 72.0173 59.3354C71.7971 59.6381 71.5466 59.9615 71.2645 60.3042C70.9824 60.6482 70.5943 61.0776 70.0989 61.5937C69.6034 62.1097 69.0805 62.5295 68.5314 62.8515C67.9809 63.1749 67.48 63.3359 67.0258 63.3359C66.7368 63.3359 66.4685 63.274 66.2208 63.1501C65.918 62.9712 65.7295 62.6272 65.6538 62.118C65.5781 61.6088 65.6084 61.0184 65.746 60.3441C65.8836 59.6711 66.0281 59.0725 66.1795 58.5496C66.3309 58.028 66.5029 57.505 66.6955 56.9821C66.7368 56.8582 66.8153 56.7688 66.9322 56.7137C67.0492 56.6587 67.1689 56.6518 67.2928 56.6931C67.3754 56.7206 67.4442 56.7688 67.4992 56.8376C67.5543 56.9064 67.5887 56.9793 67.6024 57.0536C67.6162 57.1293 67.6093 57.2147 67.5818 57.311C67.2928 58.1092 67.0561 58.8964 66.8703 59.6725C66.6845 60.4501 66.5841 61.0515 66.5717 61.4781C66.5579 61.9047 66.5992 62.1799 66.6955 62.3038C67.1497 62.5515 67.8295 62.2873 68.7378 61.5097C69.6461 60.7336 70.4773 59.8225 71.2342 58.7766C71.3168 58.6665 71.4227 58.6018 71.5535 58.5812V58.5826ZM67.0258 55.127C66.7919 55.127 66.6405 55.0169 66.5717 54.7967C66.5166 54.6728 66.5208 54.5531 66.5813 54.4361C66.6432 54.3192 66.7355 54.2338 66.8593 54.1788C66.8868 54.1788 66.9309 54.165 66.9942 54.1375C67.0561 54.11 67.1208 54.0825 67.1896 54.0549C67.2584 54.0274 67.3245 53.9999 67.385 53.9724C67.4469 53.9448 67.5268 53.9104 67.6217 53.8691L67.9933 54.776C67.5529 54.955 67.2777 55.0582 67.1689 55.0857C67.1277 55.1132 67.0795 55.127 67.0244 55.127H67.0258Z" fill="black"></path><path d="M71.5539 58.5832L71.5828 58.769C71.6021 58.7663 71.6186 58.7649 71.6365 58.7649C71.6984 58.7649 71.7493 58.7814 71.8099 58.8213C71.8456 58.8461 71.8704 58.8722 71.8883 58.9011C71.9062 58.93 71.9186 58.963 71.9255 59.0057C71.9282 59.0236 71.9296 59.0387 71.9296 59.0539C71.9296 59.1131 71.9131 59.1626 71.8677 59.2245V59.2273C71.6502 59.5259 71.4011 59.8466 71.1218 60.1879C70.8452 60.5264 70.4585 60.953 69.9658 61.4663C69.4814 61.9714 68.9722 62.3801 68.4382 62.6925C67.907 63.0049 67.4363 63.1522 67.0276 63.1508C66.7661 63.1508 66.5281 63.0957 66.3065 62.9843L66.2225 63.1522L66.3175 62.9911C66.1978 62.9196 66.0987 62.8177 66.0175 62.6705C65.9363 62.5232 65.8757 62.332 65.84 62.0939C65.8152 61.9232 65.8014 61.7416 65.8014 61.5489C65.8014 61.198 65.8441 60.8099 65.9308 60.386C66.067 59.7158 66.2102 59.1227 66.3602 58.6052C66.5102 58.0878 66.6808 57.569 66.8721 57.0502V57.0474L66.8749 57.0446C66.8886 57.0034 66.9051 56.9745 66.9272 56.9497C66.9492 56.9249 66.9753 56.9043 67.0139 56.8864C67.0579 56.8657 67.0978 56.8575 67.1377 56.8575C67.168 56.8575 67.1996 56.863 67.2354 56.874H67.2368H67.234C67.285 56.8919 67.3194 56.9167 67.3538 56.9579C67.3923 57.0075 67.4116 57.0501 67.4198 57.0914C67.4226 57.1038 67.424 57.119 67.424 57.1369C67.424 57.1713 67.4185 57.2139 67.4033 57.2635L67.5836 57.3158L67.4074 57.2525C67.1157 58.0561 66.8776 58.8502 66.6891 59.6346C66.5019 60.4191 66.4001 61.0287 66.3849 61.4773C66.3836 61.5324 66.3822 61.5861 66.3822 61.637C66.3822 61.8145 66.3932 61.9659 66.4166 62.0939C66.4414 62.2219 66.4771 62.3306 66.5487 62.4242L66.5721 62.4544L66.6065 62.4737C66.7455 62.5494 66.901 62.5865 67.0648 62.5865C67.3221 62.5865 67.5946 62.4998 67.8919 62.3443C68.1877 62.1875 68.5098 61.959 68.8607 61.6576C69.78 60.8704 70.6222 59.9484 71.386 58.8915L71.2332 58.7814L71.3832 58.8942C71.4121 58.8557 71.441 58.8296 71.4727 58.8103C71.5044 58.791 71.5388 58.7786 71.5814 58.7718L71.5525 58.586L71.5236 58.4002C71.4355 58.414 71.3516 58.4442 71.2773 58.4896C71.203 58.5351 71.1369 58.597 71.0832 58.6685H71.0819V58.6713C70.3332 59.7062 69.5116 60.6062 68.6157 61.3714C68.2786 61.6604 67.9772 61.8737 67.7157 62.0113C67.4542 62.1503 67.234 62.2109 67.0648 62.2109C66.9561 62.2109 66.8666 62.1875 66.7854 62.1448L66.696 62.3099L66.8446 62.1943C66.8308 62.1792 66.8033 62.1214 66.7868 62.0264C66.7689 61.9315 66.7579 61.8007 66.7579 61.6384C66.7579 61.5916 66.7579 61.542 66.7606 61.4911C66.773 61.0879 66.8707 60.4934 67.0551 59.7227C67.2395 58.9534 67.4735 58.1731 67.7611 57.3818L67.7639 57.3763V57.3694C67.7886 57.291 67.801 57.2153 67.801 57.1396C67.801 57.1011 67.7983 57.0639 67.7914 57.0268C67.7708 56.9167 67.7212 56.8148 67.651 56.7267C67.5753 56.6304 67.4721 56.5589 67.3579 56.5203C67.2877 56.4969 67.2148 56.4845 67.1418 56.4845C67.0441 56.4845 66.9478 56.5066 66.8583 56.5492C66.7799 56.5864 66.7083 56.6387 66.6505 56.7033C66.5927 56.768 66.5501 56.8451 66.5226 56.929L66.7015 56.9882L66.5253 56.9235C66.3313 57.4506 66.1579 57.9777 66.0051 58.5034C65.8524 59.0319 65.7065 59.636 65.5689 60.3131C65.478 60.7576 65.4326 61.1705 65.4326 61.5517C65.4326 61.7608 65.4464 61.9618 65.4753 62.1517C65.5152 62.4228 65.5868 62.6567 65.6955 62.8535C65.8028 63.0503 65.9514 63.2086 66.1331 63.3159L66.1386 63.3187L66.1441 63.3214C66.418 63.4577 66.7166 63.5265 67.0331 63.5265C67.5327 63.5265 68.0653 63.3503 68.6336 63.0159C69.1992 62.6829 69.736 62.2521 70.241 61.7251C70.7378 61.2076 71.13 60.7741 71.4163 60.4246C71.6998 60.0791 71.953 59.753 72.1759 59.4461L72.0246 59.336L72.1745 59.4488C72.2612 59.3346 72.3122 59.1956 72.3108 59.0525C72.3108 59.0167 72.308 58.9809 72.3025 58.9452C72.2888 58.8571 72.2585 58.7731 72.2117 58.6988C72.1649 58.6245 72.1016 58.5612 72.0273 58.5103C71.9131 58.4318 71.7782 58.3878 71.642 58.3878C71.6048 58.3878 71.5677 58.3906 71.5305 58.3961L71.5594 58.5818L71.5539 58.5832ZM67.0262 55.1276V54.9405C66.9382 54.9405 66.8859 54.9212 66.8473 54.8937C66.8102 54.8661 66.7771 54.8235 66.751 54.7423L66.7483 54.7313L66.7441 54.7216C66.7276 54.6845 66.7221 54.6528 66.7221 54.6253C66.7221 54.5937 66.729 54.5634 66.7496 54.5248C66.7937 54.4437 66.8501 54.3914 66.9382 54.3514L66.8625 54.1794V54.3666C66.9065 54.3666 66.9382 54.3583 66.9726 54.3473C67.0056 54.3377 67.0386 54.3239 67.0744 54.3074H67.073C67.1322 54.2813 67.1955 54.2551 67.2629 54.2276C67.3345 54.2001 67.4019 54.1712 67.4666 54.1423C67.5272 54.1161 67.6056 54.0817 67.7019 54.0404L67.6276 53.8684L67.4542 53.94L67.8258 54.8469L67.9992 54.7753L67.929 54.6019C67.7102 54.6914 67.5327 54.7616 67.3978 54.8111C67.2643 54.862 67.168 54.8937 67.1295 54.9033L67.0978 54.9116L67.0703 54.9294C67.062 54.935 67.0551 54.9377 67.0304 54.9391V55.3148C67.1157 55.3148 67.2051 55.2914 67.2795 55.2418L67.1749 55.0863L67.2203 55.268C67.2905 55.2501 67.3882 55.2171 67.5285 55.1634C67.6689 55.1111 67.8492 55.0395 68.0694 54.9501L68.2442 54.8799L67.7295 53.6221L67.5547 53.6978C67.4584 53.739 67.3785 53.7735 67.3152 53.8024C67.2574 53.8285 67.1941 53.856 67.1281 53.8822C67.0579 53.9111 66.9905 53.9386 66.9272 53.9675H66.9258C66.8996 53.9799 66.879 53.9881 66.868 53.9909L66.8583 53.9936L66.8694 54.0528V53.9936H66.8583L66.8694 54.0528V53.9936H66.8294L66.7937 54.0102C66.634 54.079 66.5047 54.2001 66.4248 54.3514C66.3794 54.4368 66.3533 54.5317 66.3547 54.6281C66.3547 54.7134 66.3739 54.7973 66.4097 54.8772L66.5817 54.8015L66.4028 54.8579C66.4455 54.9955 66.5226 55.1194 66.6368 55.2019C66.751 55.2845 66.89 55.3203 67.0359 55.3203V55.1331L67.0262 55.1276Z" fill="black"></path><path d="M80.6195 61.1712C80.7021 61.0611 80.808 60.9964 80.9388 60.9758C81.0695 60.9551 81.1893 60.9785 81.2993 61.0473C81.4094 61.1161 81.4783 61.2152 81.5058 61.346C81.5333 61.4767 81.5058 61.5978 81.4232 61.7065C81.3682 61.7891 81.2993 61.8854 81.2168 61.9955C81.1342 62.1056 80.9691 62.2914 80.7213 62.5529C80.4736 62.8144 80.219 63.0414 79.9576 63.2341C79.6961 63.4268 79.3727 63.6015 78.9887 63.7598C78.6034 63.9181 78.2181 63.9965 77.8341 63.9965C77.5726 63.9965 77.3112 63.9621 77.0497 63.8933C76.1139 63.6318 75.5166 62.89 75.2551 61.6652C75.1588 61.2386 75.1106 60.7583 75.1106 60.2216C74.0785 61.5414 73.2019 62.4497 72.4807 62.9451C71.7582 63.4405 71.1224 63.4956 70.572 63.1102C70.5582 63.1102 70.5444 63.0965 70.5307 63.0689C69.8839 62.5047 69.7669 61.6804 70.1798 60.5932C70.4825 59.8088 70.9986 59.0422 71.7266 58.2936C72.4546 57.5436 73.0945 57.1692 73.645 57.1692C73.7826 57.1692 73.8996 57.2174 73.9959 57.3137C74.0923 57.4101 74.1404 57.5229 74.1404 57.6537C74.1404 57.7844 74.0923 57.8986 73.9959 57.9936C73.8996 58.0899 73.7826 58.1381 73.645 58.1381C73.3835 58.1381 72.9569 58.4367 72.3665 59.0353C71.7748 59.634 71.3481 60.2698 71.088 60.9441C70.8403 61.5909 70.861 62.0574 71.15 62.3464C71.7417 62.6767 73.0959 61.3845 75.2138 58.4684C75.5028 56.0889 76.246 53.5113 77.4419 50.7328C78.6378 47.9543 79.7594 46.1253 80.8039 45.246C81.3819 44.7643 81.9035 44.6143 82.3714 44.7918C82.6191 44.9019 82.7842 45.0946 82.8668 45.3698C83.1145 46.2093 82.5751 47.935 81.2471 50.547C79.919 53.1604 78.3213 55.7738 76.451 58.3858C76.2997 58.5922 76.1896 58.7436 76.1208 58.8399C76.0107 59.8858 76.0313 60.7583 76.1827 61.4602C76.3753 62.3134 76.7538 62.8144 77.3167 62.9657C77.4956 63.0345 77.6841 63.0579 77.8836 63.0373C78.0832 63.0166 78.2648 62.9864 78.43 62.9451C78.5951 62.9038 78.7672 62.8322 78.9461 62.729C79.125 62.6258 79.2791 62.5295 79.4098 62.44C79.5406 62.3506 79.6741 62.2405 79.8117 62.1097C79.9493 61.979 80.0594 61.8689 80.142 61.7795C80.2245 61.69 80.3071 61.5909 80.3897 61.4808C80.4723 61.3707 80.5273 61.2992 80.5548 61.2634C80.5823 61.229 80.603 61.2056 80.6168 61.1918V61.1712H80.6195ZM81.4246 45.9891C80.5989 46.6772 79.692 48.0933 78.7011 50.2388C77.7102 52.3842 76.9754 54.5159 76.4937 56.6339C78.2538 54.0632 79.6355 51.7182 80.6401 49.6002C81.6434 47.4823 82.0838 46.1831 81.9599 45.7015C81.8223 45.7015 81.6434 45.7978 81.4232 45.9905L81.4246 45.9891Z" fill="black"></path><path d="M80.621 61.1715L80.771 61.2843C80.7999 61.2458 80.8288 61.2196 80.8605 61.2004C80.8921 61.1811 80.9265 61.1687 80.9692 61.1618C80.9898 61.1577 81.0105 61.1563 81.0284 61.1563C81.0903 61.1563 81.1426 61.1715 81.2004 61.2073C81.2362 61.2293 81.261 61.254 81.2802 61.2816C81.2995 61.3091 81.3146 61.3421 81.3229 61.3862C81.327 61.4068 81.3298 61.4247 81.3298 61.4426C81.3298 61.4949 81.316 61.5389 81.2747 61.5953L81.272 61.5995L81.2692 61.6036C81.2155 61.6834 81.1495 61.777 81.0683 61.8843C80.9967 61.9821 80.833 62.1665 80.588 62.4252C80.3472 62.6784 80.1008 62.8986 79.849 63.0844C79.604 63.2647 79.2944 63.4339 78.9201 63.5881C78.5554 63.7381 78.1948 63.811 77.837 63.811C77.592 63.811 77.3471 63.7793 77.1007 63.7147L77.0526 63.8963L77.1035 63.716C76.67 63.5936 76.326 63.3679 76.0493 63.0266C75.7741 62.6839 75.5691 62.2215 75.4424 61.6297V61.627C75.3502 61.2183 75.3021 60.7504 75.3021 60.2247V59.6797L74.9663 60.1091C73.9424 61.4219 73.0713 62.3178 72.3777 62.7926C71.991 63.0582 71.6483 63.178 71.3469 63.178C71.1116 63.178 70.8969 63.1078 70.6822 62.9591L70.634 62.9247H70.5749V63.0899L70.6478 62.9426C70.6285 62.933 70.6024 62.9247 70.5749 62.9261V63.0913L70.6478 62.944L70.5859 63.0692L70.696 62.9812C70.6891 62.9729 70.6767 62.9591 70.6492 62.944L70.5873 63.0692L70.6973 62.9812L70.634 63.0321L70.7029 62.9894L70.6973 62.9812L70.634 63.0321L70.7029 62.9894L70.6753 63.0059L70.7042 62.9908L70.6767 63.0059L70.7056 62.9908L70.6891 62.9564L70.6602 62.9316C70.4813 62.7761 70.3519 62.6027 70.2638 62.4087C70.1771 62.2146 70.1317 61.9972 70.1317 61.7522C70.1317 61.4371 70.2047 61.0738 70.3602 60.665C70.6519 59.9109 71.1515 59.165 71.8671 58.4287C72.2235 58.0627 72.5538 57.7916 72.8538 57.6168C73.1538 57.4406 73.4194 57.3608 73.6506 57.3608C73.6974 57.3608 73.7346 57.3691 73.769 57.3828C73.8034 57.3966 73.8351 57.4186 73.8681 57.4503C73.9011 57.4833 73.9231 57.5149 73.9369 57.548C73.9507 57.581 73.9575 57.6154 73.9575 57.6581C73.9575 57.7007 73.9507 57.7351 73.9369 57.7682C73.9231 57.8012 73.9025 57.8328 73.8695 57.8659C73.8364 57.8989 73.8048 57.9195 73.7704 57.9333C73.736 57.9471 73.6974 57.9553 73.6506 57.9553C73.5488 57.9553 73.4511 57.9829 73.3493 58.0269C73.1965 58.0929 73.0341 58.2003 72.8511 58.3462C72.668 58.4934 72.4644 58.6792 72.2387 58.9076C71.6318 59.5214 71.19 60.1792 70.9175 60.8797C70.7978 61.1935 70.7345 61.4742 70.7331 61.7288C70.7331 61.8775 70.7551 62.0165 70.8033 62.1444C70.8515 62.2724 70.9244 62.3866 71.0208 62.483L71.0386 62.5009L71.062 62.5133C71.1515 62.5628 71.2533 62.5876 71.3579 62.5876C71.5877 62.5862 71.8189 62.483 72.0804 62.311C72.4713 62.0495 72.9309 61.6105 73.4772 60.9898C74.0236 60.3692 74.6525 59.5668 75.3695 58.5815L75.3984 58.5416L75.4039 58.4934C75.6902 56.136 76.4264 53.5749 77.6182 50.8102C78.2141 49.4271 78.7893 48.2821 79.3439 47.3793C79.8972 46.4752 80.4297 45.8132 80.9293 45.3921C81.1302 45.2256 81.3188 45.1045 81.4963 45.0247C81.6724 44.9462 81.8348 44.9091 81.9862 44.9091C82.0991 44.9091 82.205 44.9283 82.311 44.9696L82.3784 44.7949L82.3027 44.9669C82.4032 45.0123 82.4816 45.0701 82.5463 45.1444C82.6096 45.2187 82.6592 45.3109 82.6949 45.4265C82.728 45.5366 82.7459 45.6742 82.7459 45.838C82.7459 46.2729 82.6137 46.8867 82.3371 47.6601C82.0619 48.4349 81.6449 49.3707 81.0889 50.4661C79.7664 53.0699 78.1728 55.675 76.3081 58.2801L76.4608 58.3888L76.3094 58.2774C76.1581 58.4838 76.048 58.6365 75.9778 58.7329L75.9489 58.7728L75.9434 58.8223C75.8966 59.2682 75.8732 59.6852 75.8732 60.0719C75.8732 60.6031 75.9172 61.0793 76.0094 61.5018C76.1099 61.9476 76.2599 62.311 76.4704 62.5903C76.6796 62.8697 76.9549 63.0624 77.2783 63.1491L77.3264 62.9674L77.259 63.1422C77.4173 63.2027 77.5852 63.2344 77.7558 63.2344C77.8081 63.2344 77.8604 63.2316 77.9127 63.2261C78.1191 63.2055 78.3104 63.1724 78.4852 63.1284C78.6696 63.0816 78.8581 63.0032 79.0494 62.8931C79.2311 62.7885 79.3893 62.6894 79.5256 62.5958C79.666 62.4995 79.8077 62.3839 79.9508 62.2477C80.0898 62.1155 80.2027 62.0027 80.2894 61.9091C80.3761 61.8142 80.4628 61.7109 80.5495 61.5953C80.632 61.4866 80.6871 61.4137 80.7105 61.3848C80.7366 61.3531 80.7559 61.3297 80.7587 61.3284L80.8137 61.2733V61.1742H80.6265H80.4394V61.1949H80.6265L80.4944 61.0614C80.4696 61.0862 80.4476 61.1123 80.4187 61.1495C80.3871 61.1894 80.3334 61.2609 80.2495 61.371C80.171 61.477 80.0926 61.5706 80.0141 61.6559C79.9357 61.7398 79.8283 61.8486 79.6921 61.9779C79.56 62.1032 79.4334 62.2064 79.3137 62.2889C79.1884 62.3756 79.037 62.4692 78.8609 62.5711C78.6944 62.6674 78.5375 62.7321 78.393 62.7679C78.2375 62.8064 78.0641 62.8367 77.8728 62.8559C77.8329 62.8601 77.793 62.8628 77.7544 62.8628C77.6264 62.8628 77.5081 62.8408 77.3925 62.7967L77.3829 62.7926L77.3732 62.7899C77.1324 62.7238 76.937 62.5903 76.7677 62.3688C76.5998 62.1472 76.4649 61.8334 76.3727 61.4247C76.2888 61.0366 76.2461 60.5866 76.2461 60.076C76.2461 59.7045 76.2695 59.3012 76.3149 58.865L76.1278 58.8457L76.2805 58.9544C76.348 58.8595 76.4581 58.7081 76.6094 58.503V58.5017C78.4852 55.8814 80.0884 53.2612 81.4206 50.6381C81.9821 49.5331 82.4046 48.5849 82.6881 47.7881C82.9716 46.9912 83.1174 46.3486 83.1188 45.8394C83.1188 45.6481 83.0982 45.4761 83.0528 45.3219C83.0046 45.1623 82.9316 45.0205 82.8298 44.9022C82.7293 44.7838 82.6014 44.6903 82.4541 44.6256H82.45L82.4445 44.6215C82.2972 44.565 82.1431 44.5361 81.9848 44.5361C81.7729 44.5361 81.5582 44.587 81.3422 44.6834C81.1261 44.7797 80.91 44.9215 80.6885 45.1045C80.1421 45.5655 79.5916 46.2577 79.0247 47.1825C78.4577 48.1073 77.8755 49.2675 77.2741 50.6615C76.0727 53.4524 75.3241 56.0479 75.0323 58.448L75.2181 58.47L75.0667 58.3599C74.1185 59.6659 73.3245 60.6416 72.6928 61.2857C72.3777 61.6077 72.1011 61.8458 71.8726 61.9972C71.6442 62.1513 71.4639 62.2132 71.3579 62.2105C71.3098 62.2105 71.2767 62.2009 71.2451 62.1843L71.1542 62.3481L71.2877 62.216C71.2286 62.1568 71.1859 62.0908 71.1556 62.0109C71.1253 61.9311 71.1088 61.8375 71.1088 61.7275C71.1088 61.5375 71.1584 61.2967 71.2685 61.0132C71.5189 60.3678 71.929 59.7526 72.5057 59.1705C72.796 58.876 73.0437 58.6586 73.2433 58.5196C73.3424 58.4494 73.4291 58.3998 73.4993 58.3696C73.5695 58.3393 73.6217 58.3283 73.652 58.3296C73.7429 58.3296 73.8309 58.3131 73.9135 58.2801C73.9961 58.2457 74.0704 58.1948 74.1351 58.1301C74.1984 58.0682 74.2493 57.9952 74.2837 57.914C74.3181 57.8328 74.3346 57.7461 74.3346 57.6567C74.3346 57.5686 74.3181 57.4805 74.2837 57.4007C74.2493 57.3195 74.1984 57.248 74.1351 57.1847C74.0718 57.12 73.9961 57.0691 73.9135 57.0347C73.8309 57.0003 73.7415 56.9837 73.652 56.9837C73.3341 56.9837 73.0038 57.0911 72.6653 57.2906C72.3254 57.4902 71.9717 57.7819 71.6001 58.1645C70.857 58.9283 70.3258 59.7155 70.012 60.5274C69.8455 60.9678 69.7588 61.3738 69.7588 61.7481C69.7588 62.0398 69.8125 62.3123 69.9239 62.5587C70.034 62.805 70.2005 63.0238 70.4152 63.211L70.5391 63.0692L70.3712 63.1518C70.3836 63.178 70.3987 63.2041 70.4276 63.233C70.4428 63.2468 70.4606 63.2633 70.4868 63.2757C70.5116 63.288 70.546 63.2977 70.5804 63.2977V63.1105L70.473 63.2647C70.74 63.4532 71.04 63.5523 71.3524 63.5509C71.7543 63.5509 72.1685 63.3926 72.5951 63.1009C73.3451 62.5848 74.2286 61.6669 75.2677 60.3389L75.1204 60.2233H74.9333C74.9333 60.771 74.9828 61.2664 75.0819 61.7082L75.2649 61.6669L75.0819 61.7054C75.2167 62.3385 75.4411 62.8587 75.7631 63.2591C76.0851 63.6596 76.5062 63.9362 77.0085 64.0752H77.0113C77.2865 64.1482 77.5645 64.1839 77.8425 64.1839C78.2526 64.1839 78.6641 64.0986 79.0687 63.9321C79.465 63.7697 79.8008 63.5881 80.0788 63.3844C80.3499 63.1848 80.6128 62.9495 80.8674 62.6811C81.1178 62.4169 81.283 62.2311 81.3766 62.1073C81.4605 61.9958 81.5307 61.8967 81.5885 61.8114L81.433 61.7068L81.583 61.8197C81.6656 61.7109 81.7137 61.5774 81.7137 61.4426C81.7137 61.3972 81.7082 61.3531 81.7 61.3077C81.6821 61.221 81.6477 61.1384 81.5981 61.0669C81.5486 60.9953 81.4839 60.9348 81.4096 60.888C81.2981 60.8178 81.1701 60.7793 81.038 60.7793C80.9981 60.7793 80.9582 60.782 80.9183 60.7889C80.8302 60.8027 80.7463 60.8329 80.672 60.8783C80.5963 60.9238 80.5316 60.9857 80.4779 61.0573L80.4408 61.1068V61.1687H80.6279L80.621 61.1715ZM81.4261 45.9894L81.3064 45.8449C80.8715 46.2082 80.4297 46.7477 79.9687 47.466C79.5091 48.1844 79.0302 49.0817 78.5334 50.1606C77.5384 52.3171 76.798 54.4612 76.3136 56.5915L76.0948 57.5521L76.6507 56.7402C78.415 54.1626 79.8022 51.8107 80.8123 49.6803C81.261 48.7335 81.5981 47.9491 81.8238 47.3215C81.9367 47.0078 82.0234 46.7339 82.0812 46.4958C82.139 46.2577 82.1706 46.0582 82.1706 45.8875C82.1706 45.8036 82.1624 45.7252 82.1445 45.6522L82.1087 45.5118H81.9628C81.85 45.5118 81.744 45.549 81.6367 45.6068C81.5293 45.6646 81.4206 45.7444 81.3036 45.8476L81.4275 45.9894L81.5513 46.1311C81.6532 46.0417 81.744 45.977 81.8156 45.9385C81.8871 45.8999 81.9394 45.8875 81.9642 45.8889V45.7018L81.7825 45.7486C81.7908 45.7816 81.7977 45.8297 81.7977 45.8903C81.7977 46.0142 81.7729 46.1903 81.7192 46.4091C81.5582 47.0683 81.1426 48.1128 80.4752 49.5207C79.4774 51.6262 78.0999 53.9644 76.3438 56.5296L76.4994 56.6356L76.6824 56.6769C77.1613 54.5727 77.892 52.4533 78.8774 50.3189C79.3701 49.2523 79.8407 48.3688 80.288 47.6697C80.7353 46.972 81.1591 46.4587 81.55 46.1339H81.5513L81.5527 46.1311L81.4289 45.9894H81.4261Z" fill="black"></path><path d="M87.7064 59.4488C87.8371 59.4419 87.9499 59.486 88.0463 59.5823C88.1426 59.6786 88.1908 59.7928 88.1908 59.9222C88.1908 60.0516 88.1495 60.1658 88.0669 60.2621C87.8605 60.4823 87.61 60.7259 87.3141 60.9943C87.0183 61.2626 86.5916 61.6204 86.0357 62.0663C85.4783 62.5136 84.8934 62.881 84.2824 63.17C83.67 63.459 83.114 63.6035 82.6117 63.6035C82.1094 63.6035 81.68 63.4521 81.3222 63.1494C80.9507 62.8053 80.7208 62.3553 80.6314 61.798C80.5419 61.2406 80.5695 60.6736 80.714 60.0956C80.8585 59.5176 81.0814 58.9396 81.3842 58.363C81.7681 57.6474 82.2429 57.0529 82.8071 56.5795C83.3714 56.1047 83.9342 55.9437 84.4985 56.095C85.0476 56.2464 85.3572 56.5354 85.426 56.962C85.4673 57.2648 85.3572 57.6088 85.0957 57.9928C84.8343 58.3781 84.4737 58.7593 84.0127 59.1378C83.5516 59.5162 83.1292 59.8396 82.7438 60.1066C82.3585 60.375 81.9594 60.6392 81.5479 60.9007C81.4791 61.6025 81.6167 62.1117 81.9608 62.4269C82.1672 62.6333 82.4521 62.7021 82.8168 62.6333C83.1815 62.5645 83.5627 62.431 83.9618 62.2315C84.3608 62.0319 84.7792 61.7704 85.2196 61.4484C85.6586 61.125 86.0577 60.8085 86.4155 60.4988C86.7733 60.1892 87.0898 59.8906 87.3651 59.6016C87.4614 59.5052 87.5742 59.4543 87.7064 59.4474V59.4488ZM82.2291 58.8405C82.1053 59.0607 81.9952 59.2878 81.8989 59.5217C82.6282 59.0126 83.2393 58.5309 83.7347 58.0767C84.2301 57.6226 84.4778 57.3006 84.4778 57.1079C84.4778 57.0941 84.4021 57.0735 84.2507 57.046C84.2095 57.0322 84.1682 57.0253 84.1269 57.0253C83.8517 57.0253 83.5393 57.1946 83.1883 57.5304C82.8374 57.8676 82.5181 58.3038 82.2291 58.8405Z" fill="black"></path><path d="M87.7062 59.4483L87.7172 59.6355H87.7337C87.7695 59.6355 87.7998 59.641 87.8273 59.6533C87.8562 59.6657 87.8837 59.685 87.9154 59.7153C87.9484 59.7483 87.9704 59.78 87.9842 59.813C87.998 59.846 88.0048 59.8804 88.0048 59.9231C88.0048 60.0139 87.9801 60.0758 87.9264 60.1405L88.0695 60.263L87.9319 60.135C87.731 60.3497 87.4833 60.5905 87.1901 60.8561C86.8984 61.1204 86.4745 61.4754 85.9199 61.9213C85.3736 62.3603 84.8011 62.7195 84.2038 63.0016C83.6093 63.2824 83.0781 63.4172 82.6129 63.4172C82.1478 63.4172 81.7693 63.281 81.4446 63.0071L81.3235 63.1502L81.4514 63.0126C81.1129 62.6975 80.9023 62.2929 80.8184 61.7699C80.7854 61.5662 80.7688 61.3626 80.7688 61.1561C80.7688 60.8231 80.8115 60.4859 80.8968 60.1433C81.0372 59.5818 81.2546 59.0175 81.5519 58.4519L81.3854 58.3652L81.5505 58.4547C81.9248 57.7583 82.3845 57.1831 82.9295 56.7248C83.3354 56.3849 83.718 56.2294 84.091 56.2294C84.2107 56.2294 84.3304 56.2459 84.4515 56.2776C84.7061 56.3477 84.8919 56.4455 85.0171 56.5638C85.1424 56.6822 85.2139 56.817 85.2442 56.9932L85.43 56.9629L85.2442 56.989C85.2483 57.0221 85.2511 57.0551 85.2511 57.0895C85.2511 57.3069 85.1575 57.5753 84.9456 57.8891C84.6965 58.2551 84.3483 58.6253 83.8983 58.9942C83.44 59.3699 83.0217 59.6905 82.6418 59.9547C82.2593 60.2217 81.8629 60.4846 81.4528 60.7447L81.3758 60.7942L81.3661 60.885C81.3537 61.0075 81.3482 61.1259 81.3482 61.2387C81.3482 61.5208 81.3868 61.774 81.4666 61.9984C81.5464 62.2213 81.6716 62.4154 81.8381 62.5681L81.9648 62.4305L81.8326 62.5626C81.9276 62.6576 82.0391 62.7305 82.1629 62.7787C82.2868 62.8268 82.4217 62.8502 82.5634 62.8502C82.6584 62.8502 82.7561 62.8406 82.8579 62.8213C83.2419 62.7484 83.6396 62.6094 84.0524 62.403C84.4625 62.1979 84.8905 61.9309 85.3378 61.6034C85.7809 61.2772 86.1841 60.958 86.5461 60.6456C86.908 60.3332 87.2287 60.029 87.508 59.7359L87.3718 59.6066L87.5039 59.7387C87.5727 59.6726 87.6346 59.6451 87.7213 59.6382L87.7103 59.451L87.7007 59.2639C87.5259 59.2721 87.3608 59.3478 87.2369 59.4731H87.2355L87.2342 59.4758C86.9644 59.7593 86.652 60.0552 86.2984 60.3607C85.9447 60.6662 85.5497 60.98 85.1135 61.3006C84.68 61.6185 84.2685 61.8745 83.8818 62.0672C83.4951 62.2612 83.1304 62.3878 82.7863 62.4525C82.7051 62.4676 82.6295 62.4759 82.562 62.4759C82.4602 62.4759 82.3735 62.4594 82.2978 62.4305C82.2221 62.4016 82.1574 62.3589 82.0969 62.2984L82.0941 62.2956L82.0914 62.2929C81.9716 62.1828 81.8808 62.0452 81.8189 61.8718C81.757 61.6984 81.7225 61.4878 81.7225 61.2401C81.7225 61.141 81.7281 61.035 81.7391 60.9236L81.5519 60.9057L81.6524 61.0639C82.0666 60.8011 82.4684 60.5341 82.8552 60.2657C83.2446 59.9946 83.6712 59.6685 84.135 59.2873C84.607 58.9006 84.98 58.507 85.2538 58.1024C85.4919 57.7515 85.624 57.417 85.624 57.0923C85.624 57.0413 85.6213 56.9904 85.6144 56.9409V56.9368C85.5745 56.6863 85.4575 56.4633 85.2731 56.2927C85.0887 56.1221 84.8451 55.9996 84.5506 55.9184H84.5492C84.3979 55.8771 84.2437 55.8564 84.091 55.8564C83.6093 55.8564 83.1373 56.0615 82.6873 56.44C82.1038 56.9312 81.6138 57.545 81.2202 58.2785V58.2813C80.9106 58.8703 80.6822 59.4621 80.5335 60.0552C80.4413 60.4254 80.3945 60.7942 80.3945 61.1589C80.3945 61.3846 80.4124 61.6089 80.4482 61.8318C80.5418 62.4222 80.7936 62.9177 81.1969 63.2906L81.1996 63.2934L81.2024 63.2961C81.5918 63.6278 82.0735 63.7957 82.6129 63.7943C83.151 63.7943 83.7345 63.6402 84.3634 63.3429C84.9896 63.0484 85.5869 62.6713 86.1539 62.2158C86.7126 61.7672 87.1406 61.408 87.4406 61.1355C87.7392 60.8644 87.9938 60.6167 88.2044 60.3924L88.2071 60.3896L88.2099 60.3869C88.3214 60.2589 88.3805 60.0951 88.3792 59.9245C88.3792 59.8364 88.3626 59.7483 88.3282 59.6685C88.2938 59.5873 88.2429 59.5143 88.1796 59.4524C88.1204 59.3932 88.0516 59.3437 87.9746 59.3121C87.8989 59.279 87.8163 59.2625 87.7324 59.2625H87.6952L87.7048 59.4497L87.7062 59.4483ZM82.229 58.84L82.0652 58.7478C81.9386 58.9749 81.8244 59.2075 81.7253 59.4497L81.4831 60.0401L82.0074 59.674C82.7409 59.162 83.3602 58.6749 83.8625 58.2139C84.1144 57.9827 84.307 57.7831 84.4419 57.607C84.5093 57.5189 84.563 57.4363 84.6015 57.3565C84.6401 57.2753 84.6662 57.1955 84.6662 57.106C84.6662 57.0606 84.6497 57.0235 84.6346 57.0001C84.6043 56.9574 84.5823 56.9464 84.5671 56.9354C84.5396 56.9189 84.5217 56.9147 84.5038 56.9079C84.4502 56.89 84.3827 56.8762 84.2864 56.8583L84.2534 57.0427L84.3125 56.8638C84.2547 56.8445 84.1942 56.8335 84.1295 56.8335C83.9534 56.8335 83.7758 56.8872 83.5997 56.9822C83.4235 57.0771 83.246 57.2147 83.0616 57.3909C82.6941 57.7446 82.3638 58.1973 82.0666 58.7464L82.2317 58.8359L82.3969 58.9253C82.679 58.4024 82.9873 57.9827 83.3203 57.662C83.4868 57.5024 83.641 57.3854 83.7772 57.3125C83.9134 57.2395 84.0304 57.2079 84.1295 57.2079C84.1474 57.2079 84.1694 57.2106 84.1942 57.2189L84.2066 57.223L84.219 57.2258C84.2919 57.2395 84.3456 57.2505 84.3731 57.2588L84.3882 57.2629H84.391L84.4047 57.2258L84.3882 57.2629H84.391L84.4047 57.2258L84.3882 57.2629L84.4474 57.1335L84.3579 57.2423C84.3772 57.2574 84.3841 57.2602 84.3882 57.2615L84.4474 57.1322L84.3579 57.2409L84.4694 57.1046L84.3222 57.1996C84.3359 57.2216 84.3483 57.2326 84.3579 57.2409L84.4694 57.1046L84.3222 57.1996L84.4763 57.1005H84.2933C84.2933 57.1432 84.3084 57.179 84.3222 57.1996L84.4763 57.1005H84.2933C84.2933 57.1088 84.2891 57.1404 84.2657 57.1886C84.2313 57.2615 84.1598 57.3661 84.0497 57.4914C83.9396 57.6166 83.7937 57.7652 83.6121 57.9317C83.1249 58.379 82.5194 58.8552 81.7955 59.3602L81.9028 59.5144L82.0762 59.5859C82.1698 59.3588 82.2758 59.1387 82.3969 58.9253V58.9226H82.3983L82.2331 58.8331L82.229 58.84Z" fill="black"></path></svg>